solid OpenSCAD_Model
  facet normal -1 0 0
    outer loop
      vertex 2.4 0 0.7
      vertex 2.4 29.7816 1
      vertex 2.4 29.7816 0.7
    endloop
  endfacet
  facet normal -1 -0 0
    outer loop
      vertex 2.4 29.7816 1
      vertex 2.4 0 0.7
      vertex 2.4 0 1
    endloop
  endfacet
  facet normal -0 0 1
    outer loop
      vertex 1.6 29.7816 0.7
      vertex 2.4 0 0.7
      vertex 2.4 29.7816 0.7
    endloop
  endfacet
  facet normal 0 0 1
    outer loop
      vertex 2.4 0 0.7
      vertex 1.6 29.7816 0.7
      vertex 1.6 0 0.7
    endloop
  endfacet
  facet normal 1 -0 0
    outer loop
      vertex 1.6 0 1
      vertex 1.6 29.7816 0.7
      vertex 1.6 29.7816 1
    endloop
  endfacet
  facet normal 1 0 0
    outer loop
      vertex 1.6 29.7816 0.7
      vertex 1.6 0 1
      vertex 1.6 0 0.7
    endloop
  endfacet
  facet normal -1 0 0
    outer loop
      vertex 4.4 0 0.7
      vertex 4.4 29.7816 1
      vertex 4.4 29.7816 0.7
    endloop
  endfacet
  facet normal -1 -0 0
    outer loop
      vertex 4.4 29.7816 1
      vertex 4.4 0 0.7
      vertex 4.4 0 1
    endloop
  endfacet
  facet normal -0 0 1
    outer loop
      vertex 3.6 29.7816 0.7
      vertex 4.4 0 0.7
      vertex 4.4 29.7816 0.7
    endloop
  endfacet
  facet normal 0 0 1
    outer loop
      vertex 4.4 0 0.7
      vertex 3.6 29.7816 0.7
      vertex 3.6 0 0.7
    endloop
  endfacet
  facet normal 1 -0 0
    outer loop
      vertex 3.6 0 1
      vertex 3.6 29.7816 0.7
      vertex 3.6 29.7816 1
    endloop
  endfacet
  facet normal 1 0 0
    outer loop
      vertex 3.6 29.7816 0.7
      vertex 3.6 0 1
      vertex 3.6 0 0.7
    endloop
  endfacet
  facet normal -1 0 0
    outer loop
      vertex 6.4 0 0.7
      vertex 6.4 29.7816 1
      vertex 6.4 29.7816 0.7
    endloop
  endfacet
  facet normal -1 -0 0
    outer loop
      vertex 6.4 29.7816 1
      vertex 6.4 0 0.7
      vertex 6.4 0 1
    endloop
  endfacet
  facet normal -0 0 1
    outer loop
      vertex 5.6 29.7816 0.7
      vertex 6.4 0 0.7
      vertex 6.4 29.7816 0.7
    endloop
  endfacet
  facet normal 0 0 1
    outer loop
      vertex 6.4 0 0.7
      vertex 5.6 29.7816 0.7
      vertex 5.6 0 0.7
    endloop
  endfacet
  facet normal 1 -0 0
    outer loop
      vertex 5.6 0 1
      vertex 5.6 29.7816 0.7
      vertex 5.6 29.7816 1
    endloop
  endfacet
  facet normal 1 0 0
    outer loop
      vertex 5.6 29.7816 0.7
      vertex 5.6 0 1
      vertex 5.6 0 0.7
    endloop
  endfacet
  facet normal -1 0 0
    outer loop
      vertex 8.4 0 0.7
      vertex 8.4 29.7816 1
      vertex 8.4 29.7816 0.7
    endloop
  endfacet
  facet normal -1 -0 0
    outer loop
      vertex 8.4 29.7816 1
      vertex 8.4 0 0.7
      vertex 8.4 0 1
    endloop
  endfacet
  facet normal -0 0 1
    outer loop
      vertex 7.6 29.7816 0.7
      vertex 8.4 0 0.7
      vertex 8.4 29.7816 0.7
    endloop
  endfacet
  facet normal 0 0 1
    outer loop
      vertex 8.4 0 0.7
      vertex 7.6 29.7816 0.7
      vertex 7.6 0 0.7
    endloop
  endfacet
  facet normal 1 -0 0
    outer loop
      vertex 7.6 0 1
      vertex 7.6 29.7816 0.7
      vertex 7.6 29.7816 1
    endloop
  endfacet
  facet normal 1 0 0
    outer loop
      vertex 7.6 29.7816 0.7
      vertex 7.6 0 1
      vertex 7.6 0 0.7
    endloop
  endfacet
  facet normal -1 0 0
    outer loop
      vertex 10.4 0 0.7
      vertex 10.4 29.7816 1
      vertex 10.4 29.7816 0.7
    endloop
  endfacet
  facet normal -1 -0 0
    outer loop
      vertex 10.4 29.7816 1
      vertex 10.4 0 0.7
      vertex 10.4 0 1
    endloop
  endfacet
  facet normal -0 0 1
    outer loop
      vertex 9.6 29.7816 0.7
      vertex 10.4 0 0.7
      vertex 10.4 29.7816 0.7
    endloop
  endfacet
  facet normal 0 0 1
    outer loop
      vertex 10.4 0 0.7
      vertex 9.6 29.7816 0.7
      vertex 9.6 0 0.7
    endloop
  endfacet
  facet normal 1 -0 0
    outer loop
      vertex 9.6 0 1
      vertex 9.6 29.7816 0.7
      vertex 9.6 29.7816 1
    endloop
  endfacet
  facet normal 1 0 0
    outer loop
      vertex 9.6 29.7816 0.7
      vertex 9.6 0 1
      vertex 9.6 0 0.7
    endloop
  endfacet
  facet normal -1 0 0
    outer loop
      vertex 12.4 0 0.7
      vertex 12.4 29.7816 1
      vertex 12.4 29.7816 0.7
    endloop
  endfacet
  facet normal -1 -0 0
    outer loop
      vertex 12.4 29.7816 1
      vertex 12.4 0 0.7
      vertex 12.4 0 1
    endloop
  endfacet
  facet normal -0 0 1
    outer loop
      vertex 11.6 29.7816 0.7
      vertex 12.4 0 0.7
      vertex 12.4 29.7816 0.7
    endloop
  endfacet
  facet normal 0 0 1
    outer loop
      vertex 12.4 0 0.7
      vertex 11.6 29.7816 0.7
      vertex 11.6 0 0.7
    endloop
  endfacet
  facet normal 1 -0 0
    outer loop
      vertex 11.6 0 1
      vertex 11.6 29.7816 0.7
      vertex 11.6 29.7816 1
    endloop
  endfacet
  facet normal 1 0 0
    outer loop
      vertex 11.6 29.7816 0.7
      vertex 11.6 0 1
      vertex 11.6 0 0.7
    endloop
  endfacet
  facet normal -1 0 0
    outer loop
      vertex 14.4 0 0.7
      vertex 14.4 29.7816 1
      vertex 14.4 29.7816 0.7
    endloop
  endfacet
  facet normal -1 -0 0
    outer loop
      vertex 14.4 29.7816 1
      vertex 14.4 0 0.7
      vertex 14.4 0 1
    endloop
  endfacet
  facet normal -0 0 1
    outer loop
      vertex 13.6 29.7816 0.7
      vertex 14.4 0 0.7
      vertex 14.4 29.7816 0.7
    endloop
  endfacet
  facet normal 0 0 1
    outer loop
      vertex 14.4 0 0.7
      vertex 13.6 29.7816 0.7
      vertex 13.6 0 0.7
    endloop
  endfacet
  facet normal 1 -0 0
    outer loop
      vertex 13.6 0 1
      vertex 13.6 29.7816 0.7
      vertex 13.6 29.7816 1
    endloop
  endfacet
  facet normal 1 0 0
    outer loop
      vertex 13.6 29.7816 0.7
      vertex 13.6 0 1
      vertex 13.6 0 0.7
    endloop
  endfacet
  facet normal -1 0 0
    outer loop
      vertex 16.4 0 0.7
      vertex 16.4 29.7816 1
      vertex 16.4 29.7816 0.7
    endloop
  endfacet
  facet normal -1 -0 0
    outer loop
      vertex 16.4 29.7816 1
      vertex 16.4 0 0.7
      vertex 16.4 0 1
    endloop
  endfacet
  facet normal -0 0 1
    outer loop
      vertex 15.6 29.7816 0.7
      vertex 16.4 0 0.7
      vertex 16.4 29.7816 0.7
    endloop
  endfacet
  facet normal 0 0 1
    outer loop
      vertex 16.4 0 0.7
      vertex 15.6 29.7816 0.7
      vertex 15.6 0 0.7
    endloop
  endfacet
  facet normal 1 -0 0
    outer loop
      vertex 15.6 0 1
      vertex 15.6 29.7816 0.7
      vertex 15.6 29.7816 1
    endloop
  endfacet
  facet normal 1 0 0
    outer loop
      vertex 15.6 29.7816 0.7
      vertex 15.6 0 1
      vertex 15.6 0 0.7
    endloop
  endfacet
  facet normal -1 0 0
    outer loop
      vertex 18.4 0 0.7
      vertex 18.4 29.7816 1
      vertex 18.4 29.7816 0.7
    endloop
  endfacet
  facet normal -1 -0 0
    outer loop
      vertex 18.4 29.7816 1
      vertex 18.4 0 0.7
      vertex 18.4 0 1
    endloop
  endfacet
  facet normal -0 0 1
    outer loop
      vertex 17.6 29.7816 0.7
      vertex 18.4 0 0.7
      vertex 18.4 29.7816 0.7
    endloop
  endfacet
  facet normal 0 0 1
    outer loop
      vertex 18.4 0 0.7
      vertex 17.6 29.7816 0.7
      vertex 17.6 0 0.7
    endloop
  endfacet
  facet normal 1 -0 0
    outer loop
      vertex 17.6 0 1
      vertex 17.6 29.7816 0.7
      vertex 17.6 29.7816 1
    endloop
  endfacet
  facet normal 1 0 0
    outer loop
      vertex 17.6 29.7816 0.7
      vertex 17.6 0 1
      vertex 17.6 0 0.7
    endloop
  endfacet
  facet normal -1 0 0
    outer loop
      vertex 20.4 0 0.7
      vertex 20.4 29.7816 1
      vertex 20.4 29.7816 0.7
    endloop
  endfacet
  facet normal -1 -0 0
    outer loop
      vertex 20.4 29.7816 1
      vertex 20.4 0 0.7
      vertex 20.4 0 1
    endloop
  endfacet
  facet normal -0 0 1
    outer loop
      vertex 19.6 29.7816 0.7
      vertex 20.4 0 0.7
      vertex 20.4 29.7816 0.7
    endloop
  endfacet
  facet normal 0 0 1
    outer loop
      vertex 20.4 0 0.7
      vertex 19.6 29.7816 0.7
      vertex 19.6 0 0.7
    endloop
  endfacet
  facet normal 1 -0 0
    outer loop
      vertex 19.6 0 1
      vertex 19.6 29.7816 0.7
      vertex 19.6 29.7816 1
    endloop
  endfacet
  facet normal 1 0 0
    outer loop
      vertex 19.6 29.7816 0.7
      vertex 19.6 0 1
      vertex 19.6 0 0.7
    endloop
  endfacet
  facet normal -1 0 0
    outer loop
      vertex 22.4 0 0.7
      vertex 22.4 29.7816 1
      vertex 22.4 29.7816 0.7
    endloop
  endfacet
  facet normal -1 -0 0
    outer loop
      vertex 22.4 29.7816 1
      vertex 22.4 0 0.7
      vertex 22.4 0 1
    endloop
  endfacet
  facet normal -0 0 1
    outer loop
      vertex 21.6 29.7816 0.7
      vertex 22.4 0 0.7
      vertex 22.4 29.7816 0.7
    endloop
  endfacet
  facet normal 0 0 1
    outer loop
      vertex 22.4 0 0.7
      vertex 21.6 29.7816 0.7
      vertex 21.6 0 0.7
    endloop
  endfacet
  facet normal 1 -0 0
    outer loop
      vertex 21.6 0 1
      vertex 21.6 29.7816 0.7
      vertex 21.6 29.7816 1
    endloop
  endfacet
  facet normal 1 0 0
    outer loop
      vertex 21.6 29.7816 0.7
      vertex 21.6 0 1
      vertex 21.6 0 0.7
    endloop
  endfacet
  facet normal -1 0 0
    outer loop
      vertex 24.4 0 0.7
      vertex 24.4 29.7816 1
      vertex 24.4 29.7816 0.7
    endloop
  endfacet
  facet normal -1 -0 0
    outer loop
      vertex 24.4 29.7816 1
      vertex 24.4 0 0.7
      vertex 24.4 0 1
    endloop
  endfacet
  facet normal -0 0 1
    outer loop
      vertex 23.6 29.7816 0.7
      vertex 24.4 0 0.7
      vertex 24.4 29.7816 0.7
    endloop
  endfacet
  facet normal 0 0 1
    outer loop
      vertex 24.4 0 0.7
      vertex 23.6 29.7816 0.7
      vertex 23.6 0 0.7
    endloop
  endfacet
  facet normal 1 -0 0
    outer loop
      vertex 23.6 0 1
      vertex 23.6 29.7816 0.7
      vertex 23.6 29.7816 1
    endloop
  endfacet
  facet normal 1 0 0
    outer loop
      vertex 23.6 29.7816 0.7
      vertex 23.6 0 1
      vertex 23.6 0 0.7
    endloop
  endfacet
  facet normal -1 0 0
    outer loop
      vertex 26.4 0 0.7
      vertex 26.4 29.7816 1
      vertex 26.4 29.7816 0.7
    endloop
  endfacet
  facet normal -1 -0 0
    outer loop
      vertex 26.4 29.7816 1
      vertex 26.4 0 0.7
      vertex 26.4 0 1
    endloop
  endfacet
  facet normal -0 0 1
    outer loop
      vertex 25.6 29.7816 0.7
      vertex 26.4 0 0.7
      vertex 26.4 29.7816 0.7
    endloop
  endfacet
  facet normal 0 0 1
    outer loop
      vertex 26.4 0 0.7
      vertex 25.6 29.7816 0.7
      vertex 25.6 0 0.7
    endloop
  endfacet
  facet normal 1 -0 0
    outer loop
      vertex 25.6 0 1
      vertex 25.6 29.7816 0.7
      vertex 25.6 29.7816 1
    endloop
  endfacet
  facet normal 1 0 0
    outer loop
      vertex 25.6 29.7816 0.7
      vertex 25.6 0 1
      vertex 25.6 0 0.7
    endloop
  endfacet
  facet normal -1 0 0
    outer loop
      vertex 28.4 0 0.7
      vertex 28.4 29.7816 1
      vertex 28.4 29.7816 0.7
    endloop
  endfacet
  facet normal -1 -0 0
    outer loop
      vertex 28.4 29.7816 1
      vertex 28.4 0 0.7
      vertex 28.4 0 1
    endloop
  endfacet
  facet normal -0 0 1
    outer loop
      vertex 27.6 29.7816 0.7
      vertex 28.4 0 0.7
      vertex 28.4 29.7816 0.7
    endloop
  endfacet
  facet normal 0 0 1
    outer loop
      vertex 28.4 0 0.7
      vertex 27.6 29.7816 0.7
      vertex 27.6 0 0.7
    endloop
  endfacet
  facet normal 1 -0 0
    outer loop
      vertex 27.6 0 1
      vertex 27.6 29.7816 0.7
      vertex 27.6 29.7816 1
    endloop
  endfacet
  facet normal 1 0 0
    outer loop
      vertex 27.6 29.7816 0.7
      vertex 27.6 0 1
      vertex 27.6 0 0.7
    endloop
  endfacet
  facet normal -1 0 0
    outer loop
      vertex 30.4 0 0.7
      vertex 30.4 29.7816 1
      vertex 30.4 29.7816 0.7
    endloop
  endfacet
  facet normal -1 -0 0
    outer loop
      vertex 30.4 29.7816 1
      vertex 30.4 0 0.7
      vertex 30.4 0 1
    endloop
  endfacet
  facet normal -0 0 1
    outer loop
      vertex 29.6 29.7816 0.7
      vertex 30.4 0 0.7
      vertex 30.4 29.7816 0.7
    endloop
  endfacet
  facet normal 0 0 1
    outer loop
      vertex 30.4 0 0.7
      vertex 29.6 29.7816 0.7
      vertex 29.6 0 0.7
    endloop
  endfacet
  facet normal 1 -0 0
    outer loop
      vertex 29.6 0 1
      vertex 29.6 29.7816 0.7
      vertex 29.6 29.7816 1
    endloop
  endfacet
  facet normal 1 0 0
    outer loop
      vertex 29.6 29.7816 0.7
      vertex 29.6 0 1
      vertex 29.6 0 0.7
    endloop
  endfacet
  facet normal -1 0 0
    outer loop
      vertex 32.4 0 0.7
      vertex 32.4 29.7816 1
      vertex 32.4 29.7816 0.7
    endloop
  endfacet
  facet normal -1 -0 0
    outer loop
      vertex 32.4 29.7816 1
      vertex 32.4 0 0.7
      vertex 32.4 0 1
    endloop
  endfacet
  facet normal -0 0 1
    outer loop
      vertex 31.6 29.7816 0.7
      vertex 32.4 0 0.7
      vertex 32.4 29.7816 0.7
    endloop
  endfacet
  facet normal 0 0 1
    outer loop
      vertex 32.4 0 0.7
      vertex 31.6 29.7816 0.7
      vertex 31.6 0 0.7
    endloop
  endfacet
  facet normal 1 -0 0
    outer loop
      vertex 31.6 0 1
      vertex 31.6 29.7816 0.7
      vertex 31.6 29.7816 1
    endloop
  endfacet
  facet normal 1 0 0
    outer loop
      vertex 31.6 29.7816 0.7
      vertex 31.6 0 1
      vertex 31.6 0 0.7
    endloop
  endfacet
  facet normal -1 0 0
    outer loop
      vertex 34.4 0 0.7
      vertex 34.4 29.7816 1
      vertex 34.4 29.7816 0.7
    endloop
  endfacet
  facet normal -1 -0 0
    outer loop
      vertex 34.4 29.7816 1
      vertex 34.4 0 0.7
      vertex 34.4 0 1
    endloop
  endfacet
  facet normal -0 0 1
    outer loop
      vertex 33.6 29.7816 0.7
      vertex 34.4 0 0.7
      vertex 34.4 29.7816 0.7
    endloop
  endfacet
  facet normal 0 0 1
    outer loop
      vertex 34.4 0 0.7
      vertex 33.6 29.7816 0.7
      vertex 33.6 0 0.7
    endloop
  endfacet
  facet normal 1 -0 0
    outer loop
      vertex 33.6 0 1
      vertex 33.6 29.7816 0.7
      vertex 33.6 29.7816 1
    endloop
  endfacet
  facet normal 1 0 0
    outer loop
      vertex 33.6 29.7816 0.7
      vertex 33.6 0 1
      vertex 33.6 0 0.7
    endloop
  endfacet
  facet normal -1 0 0
    outer loop
      vertex 36.4 0 0.7
      vertex 36.4 29.7816 1
      vertex 36.4 29.7816 0.7
    endloop
  endfacet
  facet normal -1 -0 0
    outer loop
      vertex 36.4 29.7816 1
      vertex 36.4 0 0.7
      vertex 36.4 0 1
    endloop
  endfacet
  facet normal -0 0 1
    outer loop
      vertex 35.6 29.7816 0.7
      vertex 36.4 0 0.7
      vertex 36.4 29.7816 0.7
    endloop
  endfacet
  facet normal 0 0 1
    outer loop
      vertex 36.4 0 0.7
      vertex 35.6 29.7816 0.7
      vertex 35.6 0 0.7
    endloop
  endfacet
  facet normal 1 -0 0
    outer loop
      vertex 35.6 0 1
      vertex 35.6 29.7816 0.7
      vertex 35.6 29.7816 1
    endloop
  endfacet
  facet normal 1 0 0
    outer loop
      vertex 35.6 29.7816 0.7
      vertex 35.6 0 1
      vertex 35.6 0 0.7
    endloop
  endfacet
  facet normal -1 0 0
    outer loop
      vertex 38.4 0 0.7
      vertex 38.4 29.7816 1
      vertex 38.4 29.7816 0.7
    endloop
  endfacet
  facet normal -1 -0 0
    outer loop
      vertex 38.4 29.7816 1
      vertex 38.4 0 0.7
      vertex 38.4 0 1
    endloop
  endfacet
  facet normal -0 0 1
    outer loop
      vertex 37.6 29.7816 0.7
      vertex 38.4 0 0.7
      vertex 38.4 29.7816 0.7
    endloop
  endfacet
  facet normal 0 0 1
    outer loop
      vertex 38.4 0 0.7
      vertex 37.6 29.7816 0.7
      vertex 37.6 0 0.7
    endloop
  endfacet
  facet normal 1 -0 0
    outer loop
      vertex 37.6 0 1
      vertex 37.6 29.7816 0.7
      vertex 37.6 29.7816 1
    endloop
  endfacet
  facet normal 1 0 0
    outer loop
      vertex 37.6 29.7816 0.7
      vertex 37.6 0 1
      vertex 37.6 0 0.7
    endloop
  endfacet
  facet normal -1 0 0
    outer loop
      vertex 40.4 0 0.7
      vertex 40.4 29.7816 1
      vertex 40.4 29.7816 0.7
    endloop
  endfacet
  facet normal -1 -0 0
    outer loop
      vertex 40.4 29.7816 1
      vertex 40.4 0 0.7
      vertex 40.4 0 1
    endloop
  endfacet
  facet normal -0 0 1
    outer loop
      vertex 39.6 29.7816 0.7
      vertex 40.4 0 0.7
      vertex 40.4 29.7816 0.7
    endloop
  endfacet
  facet normal 0 0 1
    outer loop
      vertex 40.4 0 0.7
      vertex 39.6 29.7816 0.7
      vertex 39.6 0 0.7
    endloop
  endfacet
  facet normal 1 -0 0
    outer loop
      vertex 39.6 0 1
      vertex 39.6 29.7816 0.7
      vertex 39.6 29.7816 1
    endloop
  endfacet
  facet normal 1 0 0
    outer loop
      vertex 39.6 29.7816 0.7
      vertex 39.6 0 1
      vertex 39.6 0 0.7
    endloop
  endfacet
  facet normal -1 0 0
    outer loop
      vertex 42.4 0 0.7
      vertex 42.4 29.7816 1
      vertex 42.4 29.7816 0.7
    endloop
  endfacet
  facet normal -1 -0 0
    outer loop
      vertex 42.4 29.7816 1
      vertex 42.4 0 0.7
      vertex 42.4 0 1
    endloop
  endfacet
  facet normal -0 0 1
    outer loop
      vertex 41.6 29.7816 0.7
      vertex 42.4 0 0.7
      vertex 42.4 29.7816 0.7
    endloop
  endfacet
  facet normal 0 0 1
    outer loop
      vertex 42.4 0 0.7
      vertex 41.6 29.7816 0.7
      vertex 41.6 0 0.7
    endloop
  endfacet
  facet normal 1 -0 0
    outer loop
      vertex 41.6 0 1
      vertex 41.6 29.7816 0.7
      vertex 41.6 29.7816 1
    endloop
  endfacet
  facet normal 1 0 0
    outer loop
      vertex 41.6 29.7816 0.7
      vertex 41.6 0 1
      vertex 41.6 0 0.7
    endloop
  endfacet
  facet normal -1 0 0
    outer loop
      vertex 44.4 0 0.7
      vertex 44.4 29.7816 1
      vertex 44.4 29.7816 0.7
    endloop
  endfacet
  facet normal -1 -0 0
    outer loop
      vertex 44.4 29.7816 1
      vertex 44.4 0 0.7
      vertex 44.4 0 1
    endloop
  endfacet
  facet normal -0 0 1
    outer loop
      vertex 43.6 29.7816 0.7
      vertex 44.4 0 0.7
      vertex 44.4 29.7816 0.7
    endloop
  endfacet
  facet normal 0 0 1
    outer loop
      vertex 44.4 0 0.7
      vertex 43.6 29.7816 0.7
      vertex 43.6 0 0.7
    endloop
  endfacet
  facet normal 1 -0 0
    outer loop
      vertex 43.6 0 1
      vertex 43.6 29.7816 0.7
      vertex 43.6 29.7816 1
    endloop
  endfacet
  facet normal 1 0 0
    outer loop
      vertex 43.6 29.7816 0.7
      vertex 43.6 0 1
      vertex 43.6 0 0.7
    endloop
  endfacet
  facet normal -1 0 0
    outer loop
      vertex 46.4 0 0.7
      vertex 46.4 29.7816 1
      vertex 46.4 29.7816 0.7
    endloop
  endfacet
  facet normal -1 -0 0
    outer loop
      vertex 46.4 29.7816 1
      vertex 46.4 0 0.7
      vertex 46.4 0 1
    endloop
  endfacet
  facet normal -0 0 1
    outer loop
      vertex 45.6 29.7816 0.7
      vertex 46.4 0 0.7
      vertex 46.4 29.7816 0.7
    endloop
  endfacet
  facet normal 0 0 1
    outer loop
      vertex 46.4 0 0.7
      vertex 45.6 29.7816 0.7
      vertex 45.6 0 0.7
    endloop
  endfacet
  facet normal 1 -0 0
    outer loop
      vertex 45.6 0 1
      vertex 45.6 29.7816 0.7
      vertex 45.6 29.7816 1
    endloop
  endfacet
  facet normal 1 0 0
    outer loop
      vertex 45.6 29.7816 0.7
      vertex 45.6 0 1
      vertex 45.6 0 0.7
    endloop
  endfacet
  facet normal -1 0 0
    outer loop
      vertex 48.4 0 0.7
      vertex 48.4 29.7816 1
      vertex 48.4 29.7816 0.7
    endloop
  endfacet
  facet normal -1 -0 0
    outer loop
      vertex 48.4 29.7816 1
      vertex 48.4 0 0.7
      vertex 48.4 0 1
    endloop
  endfacet
  facet normal -0 0 1
    outer loop
      vertex 47.6 29.7816 0.7
      vertex 48.4 0 0.7
      vertex 48.4 29.7816 0.7
    endloop
  endfacet
  facet normal 0 0 1
    outer loop
      vertex 48.4 0 0.7
      vertex 47.6 29.7816 0.7
      vertex 47.6 0 0.7
    endloop
  endfacet
  facet normal 1 -0 0
    outer loop
      vertex 47.6 0 1
      vertex 47.6 29.7816 0.7
      vertex 47.6 29.7816 1
    endloop
  endfacet
  facet normal 1 0 0
    outer loop
      vertex 47.6 29.7816 0.7
      vertex 47.6 0 1
      vertex 47.6 0 0.7
    endloop
  endfacet
  facet normal -1 0 0
    outer loop
      vertex 50.4 0 0.7
      vertex 50.4 29.7816 1
      vertex 50.4 29.7816 0.7
    endloop
  endfacet
  facet normal -1 -0 0
    outer loop
      vertex 50.4 29.7816 1
      vertex 50.4 0 0.7
      vertex 50.4 0 1
    endloop
  endfacet
  facet normal -0 0 1
    outer loop
      vertex 49.6 29.7816 0.7
      vertex 50.4 0 0.7
      vertex 50.4 29.7816 0.7
    endloop
  endfacet
  facet normal 0 0 1
    outer loop
      vertex 50.4 0 0.7
      vertex 49.6 29.7816 0.7
      vertex 49.6 0 0.7
    endloop
  endfacet
  facet normal 1 -0 0
    outer loop
      vertex 49.6 0 1
      vertex 49.6 29.7816 0.7
      vertex 49.6 29.7816 1
    endloop
  endfacet
  facet normal 1 0 0
    outer loop
      vertex 49.6 29.7816 0.7
      vertex 49.6 0 1
      vertex 49.6 0 0.7
    endloop
  endfacet
  facet normal -1 0 0
    outer loop
      vertex 52.4 0 0.7
      vertex 52.4 29.7816 1
      vertex 52.4 29.7816 0.7
    endloop
  endfacet
  facet normal -1 -0 0
    outer loop
      vertex 52.4 29.7816 1
      vertex 52.4 0 0.7
      vertex 52.4 0 1
    endloop
  endfacet
  facet normal -0 0 1
    outer loop
      vertex 51.6 29.7816 0.7
      vertex 52.4 0 0.7
      vertex 52.4 29.7816 0.7
    endloop
  endfacet
  facet normal 0 0 1
    outer loop
      vertex 52.4 0 0.7
      vertex 51.6 29.7816 0.7
      vertex 51.6 0 0.7
    endloop
  endfacet
  facet normal 1 -0 0
    outer loop
      vertex 51.6 0 1
      vertex 51.6 29.7816 0.7
      vertex 51.6 29.7816 1
    endloop
  endfacet
  facet normal 1 0 0
    outer loop
      vertex 51.6 29.7816 0.7
      vertex 51.6 0 1
      vertex 51.6 0 0.7
    endloop
  endfacet
  facet normal -1 0 0
    outer loop
      vertex 54.4 0 0.7
      vertex 54.4 29.7816 1
      vertex 54.4 29.7816 0.7
    endloop
  endfacet
  facet normal -1 -0 0
    outer loop
      vertex 54.4 29.7816 1
      vertex 54.4 0 0.7
      vertex 54.4 0 1
    endloop
  endfacet
  facet normal -0 0 1
    outer loop
      vertex 53.6 29.7816 0.7
      vertex 54.4 0 0.7
      vertex 54.4 29.7816 0.7
    endloop
  endfacet
  facet normal 0 0 1
    outer loop
      vertex 54.4 0 0.7
      vertex 53.6 29.7816 0.7
      vertex 53.6 0 0.7
    endloop
  endfacet
  facet normal 1 -0 0
    outer loop
      vertex 53.6 0 1
      vertex 53.6 29.7816 0.7
      vertex 53.6 29.7816 1
    endloop
  endfacet
  facet normal 1 0 0
    outer loop
      vertex 53.6 29.7816 0.7
      vertex 53.6 0 1
      vertex 53.6 0 0.7
    endloop
  endfacet
  facet normal -1 0 0
    outer loop
      vertex 56.4 0 0.7
      vertex 56.4 29.7816 1
      vertex 56.4 29.7816 0.7
    endloop
  endfacet
  facet normal -1 -0 0
    outer loop
      vertex 56.4 29.7816 1
      vertex 56.4 0 0.7
      vertex 56.4 0 1
    endloop
  endfacet
  facet normal -0 0 1
    outer loop
      vertex 55.6 29.7816 0.7
      vertex 56.4 0 0.7
      vertex 56.4 29.7816 0.7
    endloop
  endfacet
  facet normal 0 0 1
    outer loop
      vertex 56.4 0 0.7
      vertex 55.6 29.7816 0.7
      vertex 55.6 0 0.7
    endloop
  endfacet
  facet normal 1 -0 0
    outer loop
      vertex 55.6 0 1
      vertex 55.6 29.7816 0.7
      vertex 55.6 29.7816 1
    endloop
  endfacet
  facet normal 1 0 0
    outer loop
      vertex 55.6 29.7816 0.7
      vertex 55.6 0 1
      vertex 55.6 0 0.7
    endloop
  endfacet
  facet normal -1 0 0
    outer loop
      vertex 58.4 0 0.7
      vertex 58.4 29.7816 1
      vertex 58.4 29.7816 0.7
    endloop
  endfacet
  facet normal -1 -0 0
    outer loop
      vertex 58.4 29.7816 1
      vertex 58.4 0 0.7
      vertex 58.4 0 1
    endloop
  endfacet
  facet normal -0 0 1
    outer loop
      vertex 57.6 29.7816 0.7
      vertex 58.4 0 0.7
      vertex 58.4 29.7816 0.7
    endloop
  endfacet
  facet normal 0 0 1
    outer loop
      vertex 58.4 0 0.7
      vertex 57.6 29.7816 0.7
      vertex 57.6 0 0.7
    endloop
  endfacet
  facet normal 1 -0 0
    outer loop
      vertex 57.6 0 1
      vertex 57.6 29.7816 0.7
      vertex 57.6 29.7816 1
    endloop
  endfacet
  facet normal 1 0 0
    outer loop
      vertex 57.6 29.7816 0.7
      vertex 57.6 0 1
      vertex 57.6 0 0.7
    endloop
  endfacet
  facet normal -1 0 0
    outer loop
      vertex 60.4 0 0.7
      vertex 60.4 29.7816 1
      vertex 60.4 29.7816 0.7
    endloop
  endfacet
  facet normal -1 -0 0
    outer loop
      vertex 60.4 29.7816 1
      vertex 60.4 0 0.7
      vertex 60.4 0 1
    endloop
  endfacet
  facet normal -0 0 1
    outer loop
      vertex 59.6 29.7816 0.7
      vertex 60.4 0 0.7
      vertex 60.4 29.7816 0.7
    endloop
  endfacet
  facet normal 0 0 1
    outer loop
      vertex 60.4 0 0.7
      vertex 59.6 29.7816 0.7
      vertex 59.6 0 0.7
    endloop
  endfacet
  facet normal 1 -0 0
    outer loop
      vertex 59.6 0 1
      vertex 59.6 29.7816 0.7
      vertex 59.6 29.7816 1
    endloop
  endfacet
  facet normal 1 0 0
    outer loop
      vertex 59.6 29.7816 0.7
      vertex 59.6 0 1
      vertex 59.6 0 0.7
    endloop
  endfacet
  facet normal -1 0 0
    outer loop
      vertex 62.4 0 0.7
      vertex 62.4 29.7816 1
      vertex 62.4 29.7816 0.7
    endloop
  endfacet
  facet normal -1 -0 0
    outer loop
      vertex 62.4 29.7816 1
      vertex 62.4 0 0.7
      vertex 62.4 0 1
    endloop
  endfacet
  facet normal -0 0 1
    outer loop
      vertex 61.6 29.7816 0.7
      vertex 62.4 0 0.7
      vertex 62.4 29.7816 0.7
    endloop
  endfacet
  facet normal 0 0 1
    outer loop
      vertex 62.4 0 0.7
      vertex 61.6 29.7816 0.7
      vertex 61.6 0 0.7
    endloop
  endfacet
  facet normal 1 -0 0
    outer loop
      vertex 61.6 0 1
      vertex 61.6 29.7816 0.7
      vertex 61.6 29.7816 1
    endloop
  endfacet
  facet normal 1 0 0
    outer loop
      vertex 61.6 29.7816 0.7
      vertex 61.6 0 1
      vertex 61.6 0 0.7
    endloop
  endfacet
  facet normal -1 0 0
    outer loop
      vertex 64.4 0 0.7
      vertex 64.4 29.7816 1
      vertex 64.4 29.7816 0.7
    endloop
  endfacet
  facet normal -1 -0 0
    outer loop
      vertex 64.4 29.7816 1
      vertex 64.4 0 0.7
      vertex 64.4 0 1
    endloop
  endfacet
  facet normal -0 0 1
    outer loop
      vertex 63.6 29.7816 0.7
      vertex 64.4 0 0.7
      vertex 64.4 29.7816 0.7
    endloop
  endfacet
  facet normal 0 0 1
    outer loop
      vertex 64.4 0 0.7
      vertex 63.6 29.7816 0.7
      vertex 63.6 0 0.7
    endloop
  endfacet
  facet normal 1 -0 0
    outer loop
      vertex 63.6 0 1
      vertex 63.6 29.7816 0.7
      vertex 63.6 29.7816 1
    endloop
  endfacet
  facet normal 1 0 0
    outer loop
      vertex 63.6 29.7816 0.7
      vertex 63.6 0 1
      vertex 63.6 0 0.7
    endloop
  endfacet
  facet normal -1 0 0
    outer loop
      vertex 66.4 0 0.7
      vertex 66.4 29.7816 1
      vertex 66.4 29.7816 0.7
    endloop
  endfacet
  facet normal -1 -0 0
    outer loop
      vertex 66.4 29.7816 1
      vertex 66.4 0 0.7
      vertex 66.4 0 1
    endloop
  endfacet
  facet normal -0 0 1
    outer loop
      vertex 65.6 29.7816 0.7
      vertex 66.4 0 0.7
      vertex 66.4 29.7816 0.7
    endloop
  endfacet
  facet normal 0 0 1
    outer loop
      vertex 66.4 0 0.7
      vertex 65.6 29.7816 0.7
      vertex 65.6 0 0.7
    endloop
  endfacet
  facet normal 1 -0 0
    outer loop
      vertex 65.6 0 1
      vertex 65.6 29.7816 0.7
      vertex 65.6 29.7816 1
    endloop
  endfacet
  facet normal 1 0 0
    outer loop
      vertex 65.6 29.7816 0.7
      vertex 65.6 0 1
      vertex 65.6 0 0.7
    endloop
  endfacet
  facet normal 1 -0 0
    outer loop
      vertex 69.6322 0 1
      vertex 69.6322 29.7816 0
      vertex 69.6322 29.7816 1
    endloop
  endfacet
  facet normal 1 0 0
    outer loop
      vertex 69.6322 29.7816 0
      vertex 69.6322 0 1
      vertex 69.6322 0 0
    endloop
  endfacet
  facet normal -0 0 1
    outer loop
      vertex 0 29.7816 1
      vertex 1.6 0 1
      vertex 1.6 29.7816 1
    endloop
  endfacet
  facet normal 0 0 1
    outer loop
      vertex 1.6 0 1
      vertex 0 29.7816 1
      vertex 0 0 1
    endloop
  endfacet
  facet normal -0 0 1
    outer loop
      vertex 66.4 29.7816 1
      vertex 69.6322 0 1
      vertex 69.6322 29.7816 1
    endloop
  endfacet
  facet normal 0 0 1
    outer loop
      vertex 69.6322 0 1
      vertex 66.4 29.7816 1
      vertex 66.4 0 1
    endloop
  endfacet
  facet normal -0 0 1
    outer loop
      vertex 2.4 29.7816 1
      vertex 3.6 0 1
      vertex 3.6 29.7816 1
    endloop
  endfacet
  facet normal 0 0 1
    outer loop
      vertex 3.6 0 1
      vertex 2.4 29.7816 1
      vertex 2.4 0 1
    endloop
  endfacet
  facet normal -0 0 1
    outer loop
      vertex 4.4 29.7816 1
      vertex 5.6 0 1
      vertex 5.6 29.7816 1
    endloop
  endfacet
  facet normal 0 0 1
    outer loop
      vertex 5.6 0 1
      vertex 4.4 29.7816 1
      vertex 4.4 0 1
    endloop
  endfacet
  facet normal -0 0 1
    outer loop
      vertex 6.4 29.7816 1
      vertex 7.6 0 1
      vertex 7.6 29.7816 1
    endloop
  endfacet
  facet normal 0 0 1
    outer loop
      vertex 7.6 0 1
      vertex 6.4 29.7816 1
      vertex 6.4 0 1
    endloop
  endfacet
  facet normal -0 0 1
    outer loop
      vertex 8.4 29.7816 1
      vertex 9.6 0 1
      vertex 9.6 29.7816 1
    endloop
  endfacet
  facet normal 0 0 1
    outer loop
      vertex 9.6 0 1
      vertex 8.4 29.7816 1
      vertex 8.4 0 1
    endloop
  endfacet
  facet normal -0 0 1
    outer loop
      vertex 10.4 29.7816 1
      vertex 11.6 0 1
      vertex 11.6 29.7816 1
    endloop
  endfacet
  facet normal 0 0 1
    outer loop
      vertex 11.6 0 1
      vertex 10.4 29.7816 1
      vertex 10.4 0 1
    endloop
  endfacet
  facet normal -0 0 1
    outer loop
      vertex 12.4 29.7816 1
      vertex 13.6 0 1
      vertex 13.6 29.7816 1
    endloop
  endfacet
  facet normal 0 0 1
    outer loop
      vertex 13.6 0 1
      vertex 12.4 29.7816 1
      vertex 12.4 0 1
    endloop
  endfacet
  facet normal -0 0 1
    outer loop
      vertex 14.4 29.7816 1
      vertex 15.6 0 1
      vertex 15.6 29.7816 1
    endloop
  endfacet
  facet normal 0 0 1
    outer loop
      vertex 15.6 0 1
      vertex 14.4 29.7816 1
      vertex 14.4 0 1
    endloop
  endfacet
  facet normal -0 0 1
    outer loop
      vertex 16.4 29.7816 1
      vertex 17.6 0 1
      vertex 17.6 29.7816 1
    endloop
  endfacet
  facet normal 0 0 1
    outer loop
      vertex 17.6 0 1
      vertex 16.4 29.7816 1
      vertex 16.4 0 1
    endloop
  endfacet
  facet normal -0 0 1
    outer loop
      vertex 18.4 29.7816 1
      vertex 19.6 0 1
      vertex 19.6 29.7816 1
    endloop
  endfacet
  facet normal 0 0 1
    outer loop
      vertex 19.6 0 1
      vertex 18.4 29.7816 1
      vertex 18.4 0 1
    endloop
  endfacet
  facet normal -0 0 1
    outer loop
      vertex 20.4 29.7816 1
      vertex 21.6 0 1
      vertex 21.6 29.7816 1
    endloop
  endfacet
  facet normal 0 0 1
    outer loop
      vertex 21.6 0 1
      vertex 20.4 29.7816 1
      vertex 20.4 0 1
    endloop
  endfacet
  facet normal -0 0 1
    outer loop
      vertex 22.4 29.7816 1
      vertex 23.6 0 1
      vertex 23.6 29.7816 1
    endloop
  endfacet
  facet normal 0 0 1
    outer loop
      vertex 23.6 0 1
      vertex 22.4 29.7816 1
      vertex 22.4 0 1
    endloop
  endfacet
  facet normal -0 0 1
    outer loop
      vertex 24.4 29.7816 1
      vertex 25.6 0 1
      vertex 25.6 29.7816 1
    endloop
  endfacet
  facet normal 0 0 1
    outer loop
      vertex 25.6 0 1
      vertex 24.4 29.7816 1
      vertex 24.4 0 1
    endloop
  endfacet
  facet normal -0 0 1
    outer loop
      vertex 26.4 29.7816 1
      vertex 27.6 0 1
      vertex 27.6 29.7816 1
    endloop
  endfacet
  facet normal 0 0 1
    outer loop
      vertex 27.6 0 1
      vertex 26.4 29.7816 1
      vertex 26.4 0 1
    endloop
  endfacet
  facet normal -0 0 1
    outer loop
      vertex 28.4 29.7816 1
      vertex 29.6 0 1
      vertex 29.6 29.7816 1
    endloop
  endfacet
  facet normal 0 0 1
    outer loop
      vertex 29.6 0 1
      vertex 28.4 29.7816 1
      vertex 28.4 0 1
    endloop
  endfacet
  facet normal -0 0 1
    outer loop
      vertex 30.4 29.7816 1
      vertex 31.6 0 1
      vertex 31.6 29.7816 1
    endloop
  endfacet
  facet normal 0 0 1
    outer loop
      vertex 31.6 0 1
      vertex 30.4 29.7816 1
      vertex 30.4 0 1
    endloop
  endfacet
  facet normal -0 0 1
    outer loop
      vertex 32.4 29.7816 1
      vertex 33.6 0 1
      vertex 33.6 29.7816 1
    endloop
  endfacet
  facet normal 0 0 1
    outer loop
      vertex 33.6 0 1
      vertex 32.4 29.7816 1
      vertex 32.4 0 1
    endloop
  endfacet
  facet normal -0 0 1
    outer loop
      vertex 34.4 29.7816 1
      vertex 35.6 0 1
      vertex 35.6 29.7816 1
    endloop
  endfacet
  facet normal 0 0 1
    outer loop
      vertex 35.6 0 1
      vertex 34.4 29.7816 1
      vertex 34.4 0 1
    endloop
  endfacet
  facet normal -0 0 1
    outer loop
      vertex 36.4 29.7816 1
      vertex 37.6 0 1
      vertex 37.6 29.7816 1
    endloop
  endfacet
  facet normal 0 0 1
    outer loop
      vertex 37.6 0 1
      vertex 36.4 29.7816 1
      vertex 36.4 0 1
    endloop
  endfacet
  facet normal -0 0 1
    outer loop
      vertex 38.4 29.7816 1
      vertex 39.6 0 1
      vertex 39.6 29.7816 1
    endloop
  endfacet
  facet normal 0 0 1
    outer loop
      vertex 39.6 0 1
      vertex 38.4 29.7816 1
      vertex 38.4 0 1
    endloop
  endfacet
  facet normal -0 0 1
    outer loop
      vertex 40.4 29.7816 1
      vertex 41.6 0 1
      vertex 41.6 29.7816 1
    endloop
  endfacet
  facet normal 0 0 1
    outer loop
      vertex 41.6 0 1
      vertex 40.4 29.7816 1
      vertex 40.4 0 1
    endloop
  endfacet
  facet normal -0 0 1
    outer loop
      vertex 42.4 29.7816 1
      vertex 43.6 0 1
      vertex 43.6 29.7816 1
    endloop
  endfacet
  facet normal 0 0 1
    outer loop
      vertex 43.6 0 1
      vertex 42.4 29.7816 1
      vertex 42.4 0 1
    endloop
  endfacet
  facet normal -0 0 1
    outer loop
      vertex 44.4 29.7816 1
      vertex 45.6 0 1
      vertex 45.6 29.7816 1
    endloop
  endfacet
  facet normal 0 0 1
    outer loop
      vertex 45.6 0 1
      vertex 44.4 29.7816 1
      vertex 44.4 0 1
    endloop
  endfacet
  facet normal -0 0 1
    outer loop
      vertex 46.4 29.7816 1
      vertex 47.6 0 1
      vertex 47.6 29.7816 1
    endloop
  endfacet
  facet normal 0 0 1
    outer loop
      vertex 47.6 0 1
      vertex 46.4 29.7816 1
      vertex 46.4 0 1
    endloop
  endfacet
  facet normal -0 0 1
    outer loop
      vertex 48.4 29.7816 1
      vertex 49.6 0 1
      vertex 49.6 29.7816 1
    endloop
  endfacet
  facet normal 0 0 1
    outer loop
      vertex 49.6 0 1
      vertex 48.4 29.7816 1
      vertex 48.4 0 1
    endloop
  endfacet
  facet normal -0 0 1
    outer loop
      vertex 50.4 29.7816 1
      vertex 51.6 0 1
      vertex 51.6 29.7816 1
    endloop
  endfacet
  facet normal 0 0 1
    outer loop
      vertex 51.6 0 1
      vertex 50.4 29.7816 1
      vertex 50.4 0 1
    endloop
  endfacet
  facet normal -0 0 1
    outer loop
      vertex 52.4 29.7816 1
      vertex 53.6 0 1
      vertex 53.6 29.7816 1
    endloop
  endfacet
  facet normal 0 0 1
    outer loop
      vertex 53.6 0 1
      vertex 52.4 29.7816 1
      vertex 52.4 0 1
    endloop
  endfacet
  facet normal -0 0 1
    outer loop
      vertex 54.4 29.7816 1
      vertex 55.6 0 1
      vertex 55.6 29.7816 1
    endloop
  endfacet
  facet normal 0 0 1
    outer loop
      vertex 55.6 0 1
      vertex 54.4 29.7816 1
      vertex 54.4 0 1
    endloop
  endfacet
  facet normal -0 0 1
    outer loop
      vertex 56.4 29.7816 1
      vertex 57.6 0 1
      vertex 57.6 29.7816 1
    endloop
  endfacet
  facet normal 0 0 1
    outer loop
      vertex 57.6 0 1
      vertex 56.4 29.7816 1
      vertex 56.4 0 1
    endloop
  endfacet
  facet normal -0 0 1
    outer loop
      vertex 58.4 29.7816 1
      vertex 59.6 0 1
      vertex 59.6 29.7816 1
    endloop
  endfacet
  facet normal 0 0 1
    outer loop
      vertex 59.6 0 1
      vertex 58.4 29.7816 1
      vertex 58.4 0 1
    endloop
  endfacet
  facet normal -0 0 1
    outer loop
      vertex 60.4 29.7816 1
      vertex 61.6 0 1
      vertex 61.6 29.7816 1
    endloop
  endfacet
  facet normal 0 0 1
    outer loop
      vertex 61.6 0 1
      vertex 60.4 29.7816 1
      vertex 60.4 0 1
    endloop
  endfacet
  facet normal -0 0 1
    outer loop
      vertex 62.4 29.7816 1
      vertex 63.6 0 1
      vertex 63.6 29.7816 1
    endloop
  endfacet
  facet normal 0 0 1
    outer loop
      vertex 63.6 0 1
      vertex 62.4 29.7816 1
      vertex 62.4 0 1
    endloop
  endfacet
  facet normal -0 0 1
    outer loop
      vertex 64.4 29.7816 1
      vertex 65.6 0 1
      vertex 65.6 29.7816 1
    endloop
  endfacet
  facet normal 0 0 1
    outer loop
      vertex 65.6 0 1
      vertex 64.4 29.7816 1
      vertex 64.4 0 1
    endloop
  endfacet
  facet normal 0 0 -1
    outer loop
      vertex 0 0 0
      vertex 69.6322 29.7816 0
      vertex 69.6322 0 0
    endloop
  endfacet
  facet normal -0 0 -1
    outer loop
      vertex 69.6322 29.7816 0
      vertex 0 0 0
      vertex 0 29.7816 0
    endloop
  endfacet
  facet normal -1 0 0
    outer loop
      vertex 0 0 0
      vertex 0 29.7816 1
      vertex 0 29.7816 0
    endloop
  endfacet
  facet normal -1 -0 0
    outer loop
      vertex 0 29.7816 1
      vertex 0 0 0
      vertex 0 0 1
    endloop
  endfacet
  facet normal 0 1 0
    outer loop
      vertex 69.6322 29.7816 1
      vertex 66.4 29.7816 0.7
      vertex 66.4 29.7816 1
    endloop
  endfacet
  facet normal 0 1 0
    outer loop
      vertex 69.6322 29.7816 0
      vertex 65.6 29.7816 0.7
      vertex 66.4 29.7816 0.7
    endloop
  endfacet
  facet normal 0 1 0
    outer loop
      vertex 65.6 29.7816 0.7
      vertex 69.6322 29.7816 0
      vertex 64.4 29.7816 0.7
    endloop
  endfacet
  facet normal 0 1 0
    outer loop
      vertex 64.4 29.7816 0.7
      vertex 69.6322 29.7816 0
      vertex 63.6 29.7816 0.7
    endloop
  endfacet
  facet normal 0 1 0
    outer loop
      vertex 63.6 29.7816 0.7
      vertex 69.6322 29.7816 0
      vertex 62.4 29.7816 0.7
    endloop
  endfacet
  facet normal 0 1 0
    outer loop
      vertex 62.4 29.7816 0.7
      vertex 69.6322 29.7816 0
      vertex 61.6 29.7816 0.7
    endloop
  endfacet
  facet normal 0 1 0
    outer loop
      vertex 61.6 29.7816 0.7
      vertex 69.6322 29.7816 0
      vertex 60.4 29.7816 0.7
    endloop
  endfacet
  facet normal 0 1 0
    outer loop
      vertex 60.4 29.7816 0.7
      vertex 69.6322 29.7816 0
      vertex 59.6 29.7816 0.7
    endloop
  endfacet
  facet normal 0 1 0
    outer loop
      vertex 59.6 29.7816 0.7
      vertex 69.6322 29.7816 0
      vertex 58.4 29.7816 0.7
    endloop
  endfacet
  facet normal 0 1 0
    outer loop
      vertex 58.4 29.7816 0.7
      vertex 69.6322 29.7816 0
      vertex 57.6 29.7816 0.7
    endloop
  endfacet
  facet normal 0 1 0
    outer loop
      vertex 57.6 29.7816 0.7
      vertex 69.6322 29.7816 0
      vertex 56.4 29.7816 0.7
    endloop
  endfacet
  facet normal 0 1 0
    outer loop
      vertex 56.4 29.7816 0.7
      vertex 69.6322 29.7816 0
      vertex 55.6 29.7816 0.7
    endloop
  endfacet
  facet normal 0 1 0
    outer loop
      vertex 55.6 29.7816 0.7
      vertex 69.6322 29.7816 0
      vertex 54.4 29.7816 0.7
    endloop
  endfacet
  facet normal 0 1 0
    outer loop
      vertex 54.4 29.7816 0.7
      vertex 69.6322 29.7816 0
      vertex 53.6 29.7816 0.7
    endloop
  endfacet
  facet normal 0 1 0
    outer loop
      vertex 53.6 29.7816 0.7
      vertex 69.6322 29.7816 0
      vertex 52.4 29.7816 0.7
    endloop
  endfacet
  facet normal 0 1 0
    outer loop
      vertex 52.4 29.7816 0.7
      vertex 69.6322 29.7816 0
      vertex 51.6 29.7816 0.7
    endloop
  endfacet
  facet normal 0 1 0
    outer loop
      vertex 51.6 29.7816 0.7
      vertex 69.6322 29.7816 0
      vertex 50.4 29.7816 0.7
    endloop
  endfacet
  facet normal 0 1 0
    outer loop
      vertex 50.4 29.7816 0.7
      vertex 69.6322 29.7816 0
      vertex 49.6 29.7816 0.7
    endloop
  endfacet
  facet normal 0 1 0
    outer loop
      vertex 49.6 29.7816 0.7
      vertex 69.6322 29.7816 0
      vertex 48.4 29.7816 0.7
    endloop
  endfacet
  facet normal 0 1 0
    outer loop
      vertex 48.4 29.7816 0.7
      vertex 69.6322 29.7816 0
      vertex 47.6 29.7816 0.7
    endloop
  endfacet
  facet normal 0 1 0
    outer loop
      vertex 47.6 29.7816 0.7
      vertex 69.6322 29.7816 0
      vertex 46.4 29.7816 0.7
    endloop
  endfacet
  facet normal 0 1 0
    outer loop
      vertex 46.4 29.7816 0.7
      vertex 69.6322 29.7816 0
      vertex 45.6 29.7816 0.7
    endloop
  endfacet
  facet normal 0 1 0
    outer loop
      vertex 45.6 29.7816 0.7
      vertex 69.6322 29.7816 0
      vertex 44.4 29.7816 0.7
    endloop
  endfacet
  facet normal 0 1 0
    outer loop
      vertex 44.4 29.7816 0.7
      vertex 69.6322 29.7816 0
      vertex 43.6 29.7816 0.7
    endloop
  endfacet
  facet normal 0 1 0
    outer loop
      vertex 43.6 29.7816 0.7
      vertex 69.6322 29.7816 0
      vertex 42.4 29.7816 0.7
    endloop
  endfacet
  facet normal 0 1 0
    outer loop
      vertex 42.4 29.7816 0.7
      vertex 69.6322 29.7816 0
      vertex 41.6 29.7816 0.7
    endloop
  endfacet
  facet normal 0 1 0
    outer loop
      vertex 41.6 29.7816 0.7
      vertex 69.6322 29.7816 0
      vertex 40.4 29.7816 0.7
    endloop
  endfacet
  facet normal 0 1 0
    outer loop
      vertex 40.4 29.7816 0.7
      vertex 69.6322 29.7816 0
      vertex 39.6 29.7816 0.7
    endloop
  endfacet
  facet normal 0 1 0
    outer loop
      vertex 39.6 29.7816 0.7
      vertex 69.6322 29.7816 0
      vertex 38.4 29.7816 0.7
    endloop
  endfacet
  facet normal 0 1 0
    outer loop
      vertex 38.4 29.7816 0.7
      vertex 69.6322 29.7816 0
      vertex 37.6 29.7816 0.7
    endloop
  endfacet
  facet normal 0 1 0
    outer loop
      vertex 37.6 29.7816 0.7
      vertex 69.6322 29.7816 0
      vertex 36.4 29.7816 0.7
    endloop
  endfacet
  facet normal 0 1 0
    outer loop
      vertex 36.4 29.7816 0.7
      vertex 69.6322 29.7816 0
      vertex 35.6 29.7816 0.7
    endloop
  endfacet
  facet normal 0 1 0
    outer loop
      vertex 35.6 29.7816 0.7
      vertex 69.6322 29.7816 0
      vertex 34.4 29.7816 0.7
    endloop
  endfacet
  facet normal 0 1 0
    outer loop
      vertex 34.4 29.7816 0.7
      vertex 69.6322 29.7816 0
      vertex 33.6 29.7816 0.7
    endloop
  endfacet
  facet normal 0 1 0
    outer loop
      vertex 33.6 29.7816 0.7
      vertex 69.6322 29.7816 0
      vertex 32.4 29.7816 0.7
    endloop
  endfacet
  facet normal 0 1 0
    outer loop
      vertex 32.4 29.7816 0.7
      vertex 69.6322 29.7816 0
      vertex 31.6 29.7816 0.7
    endloop
  endfacet
  facet normal 0 1 0
    outer loop
      vertex 31.6 29.7816 0.7
      vertex 69.6322 29.7816 0
      vertex 30.4 29.7816 0.7
    endloop
  endfacet
  facet normal 0 1 0
    outer loop
      vertex 30.4 29.7816 0.7
      vertex 69.6322 29.7816 0
      vertex 29.6 29.7816 0.7
    endloop
  endfacet
  facet normal 0 1 0
    outer loop
      vertex 29.6 29.7816 0.7
      vertex 69.6322 29.7816 0
      vertex 28.4 29.7816 0.7
    endloop
  endfacet
  facet normal 0 1 0
    outer loop
      vertex 28.4 29.7816 0.7
      vertex 69.6322 29.7816 0
      vertex 27.6 29.7816 0.7
    endloop
  endfacet
  facet normal 0 1 0
    outer loop
      vertex 27.6 29.7816 0.7
      vertex 69.6322 29.7816 0
      vertex 26.4 29.7816 0.7
    endloop
  endfacet
  facet normal 0 1 0
    outer loop
      vertex 0 29.7816 0
      vertex 26.4 29.7816 0.7
      vertex 69.6322 29.7816 0
    endloop
  endfacet
  facet normal 0 1 0
    outer loop
      vertex 26.4 29.7816 0.7
      vertex 0 29.7816 0
      vertex 25.6 29.7816 0.7
    endloop
  endfacet
  facet normal 0 1 0
    outer loop
      vertex 25.6 29.7816 0.7
      vertex 0 29.7816 0
      vertex 24.4 29.7816 0.7
    endloop
  endfacet
  facet normal 0 1 0
    outer loop
      vertex 24.4 29.7816 0.7
      vertex 0 29.7816 0
      vertex 23.6 29.7816 0.7
    endloop
  endfacet
  facet normal 0 1 0
    outer loop
      vertex 23.6 29.7816 0.7
      vertex 0 29.7816 0
      vertex 22.4 29.7816 0.7
    endloop
  endfacet
  facet normal 0 1 0
    outer loop
      vertex 22.4 29.7816 0.7
      vertex 0 29.7816 0
      vertex 21.6 29.7816 0.7
    endloop
  endfacet
  facet normal 0 1 0
    outer loop
      vertex 21.6 29.7816 0.7
      vertex 0 29.7816 0
      vertex 20.4 29.7816 0.7
    endloop
  endfacet
  facet normal 0 1 0
    outer loop
      vertex 20.4 29.7816 0.7
      vertex 0 29.7816 0
      vertex 19.6 29.7816 0.7
    endloop
  endfacet
  facet normal 0 1 0
    outer loop
      vertex 19.6 29.7816 0.7
      vertex 0 29.7816 0
      vertex 18.4 29.7816 0.7
    endloop
  endfacet
  facet normal 0 1 0
    outer loop
      vertex 18.4 29.7816 0.7
      vertex 0 29.7816 0
      vertex 17.6 29.7816 0.7
    endloop
  endfacet
  facet normal 0 1 0
    outer loop
      vertex 17.6 29.7816 0.7
      vertex 0 29.7816 0
      vertex 16.4 29.7816 0.7
    endloop
  endfacet
  facet normal 0 1 0
    outer loop
      vertex 16.4 29.7816 0.7
      vertex 0 29.7816 0
      vertex 15.6 29.7816 0.7
    endloop
  endfacet
  facet normal 0 1 0
    outer loop
      vertex 15.6 29.7816 0.7
      vertex 0 29.7816 0
      vertex 14.4 29.7816 0.7
    endloop
  endfacet
  facet normal 0 1 0
    outer loop
      vertex 14.4 29.7816 0.7
      vertex 0 29.7816 0
      vertex 13.6 29.7816 0.7
    endloop
  endfacet
  facet normal 0 1 0
    outer loop
      vertex 13.6 29.7816 0.7
      vertex 0 29.7816 0
      vertex 12.4 29.7816 0.7
    endloop
  endfacet
  facet normal 0 1 0
    outer loop
      vertex 12.4 29.7816 0.7
      vertex 0 29.7816 0
      vertex 11.6 29.7816 0.7
    endloop
  endfacet
  facet normal 0 1 0
    outer loop
      vertex 11.6 29.7816 0.7
      vertex 0 29.7816 0
      vertex 10.4 29.7816 0.7
    endloop
  endfacet
  facet normal 0 1 0
    outer loop
      vertex 10.4 29.7816 0.7
      vertex 0 29.7816 0
      vertex 9.6 29.7816 0.7
    endloop
  endfacet
  facet normal 0 1 0
    outer loop
      vertex 9.6 29.7816 0.7
      vertex 0 29.7816 0
      vertex 8.4 29.7816 0.7
    endloop
  endfacet
  facet normal 0 1 0
    outer loop
      vertex 8.4 29.7816 0.7
      vertex 0 29.7816 0
      vertex 7.6 29.7816 0.7
    endloop
  endfacet
  facet normal 0 1 0
    outer loop
      vertex 7.6 29.7816 0.7
      vertex 0 29.7816 0
      vertex 6.4 29.7816 0.7
    endloop
  endfacet
  facet normal 0 1 0
    outer loop
      vertex 6.4 29.7816 0.7
      vertex 0 29.7816 0
      vertex 5.6 29.7816 0.7
    endloop
  endfacet
  facet normal 0 1 0
    outer loop
      vertex 5.6 29.7816 0.7
      vertex 0 29.7816 0
      vertex 4.4 29.7816 0.7
    endloop
  endfacet
  facet normal 0 1 0
    outer loop
      vertex 3.6 29.7816 0.7
      vertex 0 29.7816 0
      vertex 2.4 29.7816 0.7
    endloop
  endfacet
  facet normal 0 1 0
    outer loop
      vertex 4.4 29.7816 0.7
      vertex 0 29.7816 0
      vertex 3.6 29.7816 0.7
    endloop
  endfacet
  facet normal 0 1 -0
    outer loop
      vertex 69.6322 29.7816 0
      vertex 66.4 29.7816 0.7
      vertex 69.6322 29.7816 1
    endloop
  endfacet
  facet normal 0 1 -0
    outer loop
      vertex 65.6 29.7816 0.7
      vertex 64.4 29.7816 1
      vertex 65.6 29.7816 1
    endloop
  endfacet
  facet normal 0 1 0
    outer loop
      vertex 64.4 29.7816 1
      vertex 65.6 29.7816 0.7
      vertex 64.4 29.7816 0.7
    endloop
  endfacet
  facet normal 0 1 -0
    outer loop
      vertex 63.6 29.7816 0.7
      vertex 62.4 29.7816 1
      vertex 63.6 29.7816 1
    endloop
  endfacet
  facet normal 0 1 0
    outer loop
      vertex 62.4 29.7816 1
      vertex 63.6 29.7816 0.7
      vertex 62.4 29.7816 0.7
    endloop
  endfacet
  facet normal 0 1 -0
    outer loop
      vertex 61.6 29.7816 0.7
      vertex 60.4 29.7816 1
      vertex 61.6 29.7816 1
    endloop
  endfacet
  facet normal 0 1 0
    outer loop
      vertex 60.4 29.7816 1
      vertex 61.6 29.7816 0.7
      vertex 60.4 29.7816 0.7
    endloop
  endfacet
  facet normal 0 1 -0
    outer loop
      vertex 59.6 29.7816 0.7
      vertex 58.4 29.7816 1
      vertex 59.6 29.7816 1
    endloop
  endfacet
  facet normal 0 1 0
    outer loop
      vertex 58.4 29.7816 1
      vertex 59.6 29.7816 0.7
      vertex 58.4 29.7816 0.7
    endloop
  endfacet
  facet normal 0 1 -0
    outer loop
      vertex 57.6 29.7816 0.7
      vertex 56.4 29.7816 1
      vertex 57.6 29.7816 1
    endloop
  endfacet
  facet normal 0 1 0
    outer loop
      vertex 56.4 29.7816 1
      vertex 57.6 29.7816 0.7
      vertex 56.4 29.7816 0.7
    endloop
  endfacet
  facet normal 0 1 -0
    outer loop
      vertex 55.6 29.7816 0.7
      vertex 54.4 29.7816 1
      vertex 55.6 29.7816 1
    endloop
  endfacet
  facet normal 0 1 0
    outer loop
      vertex 54.4 29.7816 1
      vertex 55.6 29.7816 0.7
      vertex 54.4 29.7816 0.7
    endloop
  endfacet
  facet normal 0 1 -0
    outer loop
      vertex 53.6 29.7816 0.7
      vertex 52.4 29.7816 1
      vertex 53.6 29.7816 1
    endloop
  endfacet
  facet normal 0 1 0
    outer loop
      vertex 52.4 29.7816 1
      vertex 53.6 29.7816 0.7
      vertex 52.4 29.7816 0.7
    endloop
  endfacet
  facet normal 0 1 -0
    outer loop
      vertex 51.6 29.7816 0.7
      vertex 50.4 29.7816 1
      vertex 51.6 29.7816 1
    endloop
  endfacet
  facet normal 0 1 0
    outer loop
      vertex 50.4 29.7816 1
      vertex 51.6 29.7816 0.7
      vertex 50.4 29.7816 0.7
    endloop
  endfacet
  facet normal 0 1 -0
    outer loop
      vertex 49.6 29.7816 0.7
      vertex 48.4 29.7816 1
      vertex 49.6 29.7816 1
    endloop
  endfacet
  facet normal 0 1 0
    outer loop
      vertex 48.4 29.7816 1
      vertex 49.6 29.7816 0.7
      vertex 48.4 29.7816 0.7
    endloop
  endfacet
  facet normal 0 1 -0
    outer loop
      vertex 47.6 29.7816 0.7
      vertex 46.4 29.7816 1
      vertex 47.6 29.7816 1
    endloop
  endfacet
  facet normal 0 1 0
    outer loop
      vertex 46.4 29.7816 1
      vertex 47.6 29.7816 0.7
      vertex 46.4 29.7816 0.7
    endloop
  endfacet
  facet normal 0 1 -0
    outer loop
      vertex 45.6 29.7816 0.7
      vertex 44.4 29.7816 1
      vertex 45.6 29.7816 1
    endloop
  endfacet
  facet normal 0 1 0
    outer loop
      vertex 44.4 29.7816 1
      vertex 45.6 29.7816 0.7
      vertex 44.4 29.7816 0.7
    endloop
  endfacet
  facet normal 0 1 -0
    outer loop
      vertex 43.6 29.7816 0.7
      vertex 42.4 29.7816 1
      vertex 43.6 29.7816 1
    endloop
  endfacet
  facet normal 0 1 0
    outer loop
      vertex 42.4 29.7816 1
      vertex 43.6 29.7816 0.7
      vertex 42.4 29.7816 0.7
    endloop
  endfacet
  facet normal 0 1 -0
    outer loop
      vertex 41.6 29.7816 0.7
      vertex 40.4 29.7816 1
      vertex 41.6 29.7816 1
    endloop
  endfacet
  facet normal 0 1 0
    outer loop
      vertex 40.4 29.7816 1
      vertex 41.6 29.7816 0.7
      vertex 40.4 29.7816 0.7
    endloop
  endfacet
  facet normal 0 1 -0
    outer loop
      vertex 39.6 29.7816 0.7
      vertex 38.4 29.7816 1
      vertex 39.6 29.7816 1
    endloop
  endfacet
  facet normal 0 1 0
    outer loop
      vertex 38.4 29.7816 1
      vertex 39.6 29.7816 0.7
      vertex 38.4 29.7816 0.7
    endloop
  endfacet
  facet normal 0 1 -0
    outer loop
      vertex 37.6 29.7816 0.7
      vertex 36.4 29.7816 1
      vertex 37.6 29.7816 1
    endloop
  endfacet
  facet normal 0 1 0
    outer loop
      vertex 36.4 29.7816 1
      vertex 37.6 29.7816 0.7
      vertex 36.4 29.7816 0.7
    endloop
  endfacet
  facet normal 0 1 -0
    outer loop
      vertex 35.6 29.7816 0.7
      vertex 34.4 29.7816 1
      vertex 35.6 29.7816 1
    endloop
  endfacet
  facet normal 0 1 0
    outer loop
      vertex 34.4 29.7816 1
      vertex 35.6 29.7816 0.7
      vertex 34.4 29.7816 0.7
    endloop
  endfacet
  facet normal 0 1 -0
    outer loop
      vertex 33.6 29.7816 0.7
      vertex 32.4 29.7816 1
      vertex 33.6 29.7816 1
    endloop
  endfacet
  facet normal 0 1 0
    outer loop
      vertex 32.4 29.7816 1
      vertex 33.6 29.7816 0.7
      vertex 32.4 29.7816 0.7
    endloop
  endfacet
  facet normal 0 1 -0
    outer loop
      vertex 31.6 29.7816 0.7
      vertex 30.4 29.7816 1
      vertex 31.6 29.7816 1
    endloop
  endfacet
  facet normal 0 1 0
    outer loop
      vertex 30.4 29.7816 1
      vertex 31.6 29.7816 0.7
      vertex 30.4 29.7816 0.7
    endloop
  endfacet
  facet normal 0 1 -0
    outer loop
      vertex 29.6 29.7816 0.7
      vertex 28.4 29.7816 1
      vertex 29.6 29.7816 1
    endloop
  endfacet
  facet normal 0 1 0
    outer loop
      vertex 28.4 29.7816 1
      vertex 29.6 29.7816 0.7
      vertex 28.4 29.7816 0.7
    endloop
  endfacet
  facet normal 0 1 -0
    outer loop
      vertex 27.6 29.7816 0.7
      vertex 26.4 29.7816 1
      vertex 27.6 29.7816 1
    endloop
  endfacet
  facet normal 0 1 0
    outer loop
      vertex 26.4 29.7816 1
      vertex 27.6 29.7816 0.7
      vertex 26.4 29.7816 0.7
    endloop
  endfacet
  facet normal 0 1 -0
    outer loop
      vertex 25.6 29.7816 0.7
      vertex 24.4 29.7816 1
      vertex 25.6 29.7816 1
    endloop
  endfacet
  facet normal 0 1 0
    outer loop
      vertex 24.4 29.7816 1
      vertex 25.6 29.7816 0.7
      vertex 24.4 29.7816 0.7
    endloop
  endfacet
  facet normal 0 1 -0
    outer loop
      vertex 23.6 29.7816 0.7
      vertex 22.4 29.7816 1
      vertex 23.6 29.7816 1
    endloop
  endfacet
  facet normal 0 1 0
    outer loop
      vertex 22.4 29.7816 1
      vertex 23.6 29.7816 0.7
      vertex 22.4 29.7816 0.7
    endloop
  endfacet
  facet normal 0 1 -0
    outer loop
      vertex 21.6 29.7816 0.7
      vertex 20.4 29.7816 1
      vertex 21.6 29.7816 1
    endloop
  endfacet
  facet normal 0 1 0
    outer loop
      vertex 20.4 29.7816 1
      vertex 21.6 29.7816 0.7
      vertex 20.4 29.7816 0.7
    endloop
  endfacet
  facet normal 0 1 -0
    outer loop
      vertex 19.6 29.7816 0.7
      vertex 18.4 29.7816 1
      vertex 19.6 29.7816 1
    endloop
  endfacet
  facet normal 0 1 0
    outer loop
      vertex 18.4 29.7816 1
      vertex 19.6 29.7816 0.7
      vertex 18.4 29.7816 0.7
    endloop
  endfacet
  facet normal 0 1 -0
    outer loop
      vertex 17.6 29.7816 0.7
      vertex 16.4 29.7816 1
      vertex 17.6 29.7816 1
    endloop
  endfacet
  facet normal 0 1 0
    outer loop
      vertex 16.4 29.7816 1
      vertex 17.6 29.7816 0.7
      vertex 16.4 29.7816 0.7
    endloop
  endfacet
  facet normal 0 1 -0
    outer loop
      vertex 15.6 29.7816 0.7
      vertex 14.4 29.7816 1
      vertex 15.6 29.7816 1
    endloop
  endfacet
  facet normal 0 1 0
    outer loop
      vertex 14.4 29.7816 1
      vertex 15.6 29.7816 0.7
      vertex 14.4 29.7816 0.7
    endloop
  endfacet
  facet normal 0 1 -0
    outer loop
      vertex 13.6 29.7816 0.7
      vertex 12.4 29.7816 1
      vertex 13.6 29.7816 1
    endloop
  endfacet
  facet normal 0 1 0
    outer loop
      vertex 12.4 29.7816 1
      vertex 13.6 29.7816 0.7
      vertex 12.4 29.7816 0.7
    endloop
  endfacet
  facet normal 0 1 -0
    outer loop
      vertex 11.6 29.7816 0.7
      vertex 10.4 29.7816 1
      vertex 11.6 29.7816 1
    endloop
  endfacet
  facet normal 0 1 0
    outer loop
      vertex 10.4 29.7816 1
      vertex 11.6 29.7816 0.7
      vertex 10.4 29.7816 0.7
    endloop
  endfacet
  facet normal 0 1 -0
    outer loop
      vertex 9.6 29.7816 0.7
      vertex 8.4 29.7816 1
      vertex 9.6 29.7816 1
    endloop
  endfacet
  facet normal 0 1 0
    outer loop
      vertex 8.4 29.7816 1
      vertex 9.6 29.7816 0.7
      vertex 8.4 29.7816 0.7
    endloop
  endfacet
  facet normal 0 1 -0
    outer loop
      vertex 7.6 29.7816 0.7
      vertex 6.4 29.7816 1
      vertex 7.6 29.7816 1
    endloop
  endfacet
  facet normal 0 1 0
    outer loop
      vertex 6.4 29.7816 1
      vertex 7.6 29.7816 0.7
      vertex 6.4 29.7816 0.7
    endloop
  endfacet
  facet normal 0 1 -0
    outer loop
      vertex 5.6 29.7816 0.7
      vertex 4.4 29.7816 1
      vertex 5.6 29.7816 1
    endloop
  endfacet
  facet normal 0 1 0
    outer loop
      vertex 4.4 29.7816 1
      vertex 5.6 29.7816 0.7
      vertex 4.4 29.7816 0.7
    endloop
  endfacet
  facet normal 0 1 -0
    outer loop
      vertex 3.6 29.7816 0.7
      vertex 2.4 29.7816 1
      vertex 3.6 29.7816 1
    endloop
  endfacet
  facet normal 0 1 0
    outer loop
      vertex 2.4 29.7816 1
      vertex 3.6 29.7816 0.7
      vertex 2.4 29.7816 0.7
    endloop
  endfacet
  facet normal 0 1 -0
    outer loop
      vertex 1.6 29.7816 0.7
      vertex 0 29.7816 1
      vertex 1.6 29.7816 1
    endloop
  endfacet
  facet normal 0 1 0
    outer loop
      vertex 1.6 29.7816 0.7
      vertex 0 29.7816 0
      vertex 0 29.7816 1
    endloop
  endfacet
  facet normal 0 1 0
    outer loop
      vertex 2.4 29.7816 0.7
      vertex 0 29.7816 0
      vertex 1.6 29.7816 0.7
    endloop
  endfacet
  facet normal 0 -1 0
    outer loop
      vertex 0 0 1
      vertex 1.6 0 0.7
      vertex 1.6 0 1
    endloop
  endfacet
  facet normal 0 -1 0
    outer loop
      vertex 0 0 0
      vertex 2.4 0 0.7
      vertex 1.6 0 0.7
    endloop
  endfacet
  facet normal 0 -1 -0
    outer loop
      vertex 2.4 0 0.7
      vertex 0 0 0
      vertex 3.6 0 0.7
    endloop
  endfacet
  facet normal 0 -1 -0
    outer loop
      vertex 3.6 0 0.7
      vertex 0 0 0
      vertex 4.4 0 0.7
    endloop
  endfacet
  facet normal 0 -1 -0
    outer loop
      vertex 4.4 0 0.7
      vertex 0 0 0
      vertex 5.6 0 0.7
    endloop
  endfacet
  facet normal 0 -1 -0
    outer loop
      vertex 5.6 0 0.7
      vertex 0 0 0
      vertex 6.4 0 0.7
    endloop
  endfacet
  facet normal 0 -1 -0
    outer loop
      vertex 6.4 0 0.7
      vertex 0 0 0
      vertex 7.6 0 0.7
    endloop
  endfacet
  facet normal 0 -1 -0
    outer loop
      vertex 7.6 0 0.7
      vertex 0 0 0
      vertex 8.4 0 0.7
    endloop
  endfacet
  facet normal 0 -1 -0
    outer loop
      vertex 8.4 0 0.7
      vertex 0 0 0
      vertex 9.6 0 0.7
    endloop
  endfacet
  facet normal 0 -1 -0
    outer loop
      vertex 9.6 0 0.7
      vertex 0 0 0
      vertex 10.4 0 0.7
    endloop
  endfacet
  facet normal 0 -1 -0
    outer loop
      vertex 10.4 0 0.7
      vertex 0 0 0
      vertex 11.6 0 0.7
    endloop
  endfacet
  facet normal 0 -1 -0
    outer loop
      vertex 11.6 0 0.7
      vertex 0 0 0
      vertex 12.4 0 0.7
    endloop
  endfacet
  facet normal 0 -1 -0
    outer loop
      vertex 12.4 0 0.7
      vertex 0 0 0
      vertex 13.6 0 0.7
    endloop
  endfacet
  facet normal 0 -1 -0
    outer loop
      vertex 13.6 0 0.7
      vertex 0 0 0
      vertex 14.4 0 0.7
    endloop
  endfacet
  facet normal 0 -1 -0
    outer loop
      vertex 14.4 0 0.7
      vertex 0 0 0
      vertex 15.6 0 0.7
    endloop
  endfacet
  facet normal 0 -1 -0
    outer loop
      vertex 15.6 0 0.7
      vertex 0 0 0
      vertex 16.4 0 0.7
    endloop
  endfacet
  facet normal 0 -1 -0
    outer loop
      vertex 16.4 0 0.7
      vertex 0 0 0
      vertex 17.6 0 0.7
    endloop
  endfacet
  facet normal 0 -1 -0
    outer loop
      vertex 17.6 0 0.7
      vertex 0 0 0
      vertex 18.4 0 0.7
    endloop
  endfacet
  facet normal 0 -1 -0
    outer loop
      vertex 18.4 0 0.7
      vertex 0 0 0
      vertex 19.6 0 0.7
    endloop
  endfacet
  facet normal 0 -1 -0
    outer loop
      vertex 19.6 0 0.7
      vertex 0 0 0
      vertex 20.4 0 0.7
    endloop
  endfacet
  facet normal 0 -1 -0
    outer loop
      vertex 20.4 0 0.7
      vertex 0 0 0
      vertex 21.6 0 0.7
    endloop
  endfacet
  facet normal 0 -1 -0
    outer loop
      vertex 21.6 0 0.7
      vertex 0 0 0
      vertex 22.4 0 0.7
    endloop
  endfacet
  facet normal 0 -1 -0
    outer loop
      vertex 22.4 0 0.7
      vertex 0 0 0
      vertex 23.6 0 0.7
    endloop
  endfacet
  facet normal 0 -1 -0
    outer loop
      vertex 23.6 0 0.7
      vertex 0 0 0
      vertex 24.4 0 0.7
    endloop
  endfacet
  facet normal 0 -1 -0
    outer loop
      vertex 24.4 0 0.7
      vertex 0 0 0
      vertex 25.6 0 0.7
    endloop
  endfacet
  facet normal 0 -1 -0
    outer loop
      vertex 25.6 0 0.7
      vertex 0 0 0
      vertex 26.4 0 0.7
    endloop
  endfacet
  facet normal 0 -1 -0
    outer loop
      vertex 26.4 0 0.7
      vertex 0 0 0
      vertex 27.6 0 0.7
    endloop
  endfacet
  facet normal 0 -1 -0
    outer loop
      vertex 27.6 0 0.7
      vertex 0 0 0
      vertex 28.4 0 0.7
    endloop
  endfacet
  facet normal 0 -1 -0
    outer loop
      vertex 28.4 0 0.7
      vertex 0 0 0
      vertex 29.6 0 0.7
    endloop
  endfacet
  facet normal 0 -1 -0
    outer loop
      vertex 29.6 0 0.7
      vertex 0 0 0
      vertex 30.4 0 0.7
    endloop
  endfacet
  facet normal 0 -1 -0
    outer loop
      vertex 30.4 0 0.7
      vertex 0 0 0
      vertex 31.6 0 0.7
    endloop
  endfacet
  facet normal 0 -1 -0
    outer loop
      vertex 31.6 0 0.7
      vertex 0 0 0
      vertex 32.4 0 0.7
    endloop
  endfacet
  facet normal 0 -1 -0
    outer loop
      vertex 32.4 0 0.7
      vertex 0 0 0
      vertex 33.6 0 0.7
    endloop
  endfacet
  facet normal 0 -1 -0
    outer loop
      vertex 33.6 0 0.7
      vertex 0 0 0
      vertex 34.4 0 0.7
    endloop
  endfacet
  facet normal 0 -1 -0
    outer loop
      vertex 34.4 0 0.7
      vertex 0 0 0
      vertex 35.6 0 0.7
    endloop
  endfacet
  facet normal 0 -1 -0
    outer loop
      vertex 35.6 0 0.7
      vertex 0 0 0
      vertex 36.4 0 0.7
    endloop
  endfacet
  facet normal 0 -1 -0
    outer loop
      vertex 36.4 0 0.7
      vertex 0 0 0
      vertex 37.6 0 0.7
    endloop
  endfacet
  facet normal 0 -1 -0
    outer loop
      vertex 37.6 0 0.7
      vertex 0 0 0
      vertex 38.4 0 0.7
    endloop
  endfacet
  facet normal 0 -1 -0
    outer loop
      vertex 38.4 0 0.7
      vertex 0 0 0
      vertex 39.6 0 0.7
    endloop
  endfacet
  facet normal 0 -1 -0
    outer loop
      vertex 39.6 0 0.7
      vertex 0 0 0
      vertex 40.4 0 0.7
    endloop
  endfacet
  facet normal 0 -1 -0
    outer loop
      vertex 40.4 0 0.7
      vertex 0 0 0
      vertex 41.6 0 0.7
    endloop
  endfacet
  facet normal 0 -1 -0
    outer loop
      vertex 41.6 0 0.7
      vertex 0 0 0
      vertex 42.4 0 0.7
    endloop
  endfacet
  facet normal 0 -1 0
    outer loop
      vertex 69.6322 0 0
      vertex 42.4 0 0.7
      vertex 0 0 0
    endloop
  endfacet
  facet normal 0 -1 0
    outer loop
      vertex 42.4 0 0.7
      vertex 69.6322 0 0
      vertex 43.6 0 0.7
    endloop
  endfacet
  facet normal 0 -1 0
    outer loop
      vertex 43.6 0 0.7
      vertex 69.6322 0 0
      vertex 44.4 0 0.7
    endloop
  endfacet
  facet normal 0 -1 0
    outer loop
      vertex 44.4 0 0.7
      vertex 69.6322 0 0
      vertex 45.6 0 0.7
    endloop
  endfacet
  facet normal 0 -1 0
    outer loop
      vertex 45.6 0 0.7
      vertex 69.6322 0 0
      vertex 46.4 0 0.7
    endloop
  endfacet
  facet normal 0 -1 0
    outer loop
      vertex 46.4 0 0.7
      vertex 69.6322 0 0
      vertex 47.6 0 0.7
    endloop
  endfacet
  facet normal 0 -1 0
    outer loop
      vertex 47.6 0 0.7
      vertex 69.6322 0 0
      vertex 48.4 0 0.7
    endloop
  endfacet
  facet normal 0 -1 0
    outer loop
      vertex 48.4 0 0.7
      vertex 69.6322 0 0
      vertex 49.6 0 0.7
    endloop
  endfacet
  facet normal 0 -1 0
    outer loop
      vertex 49.6 0 0.7
      vertex 69.6322 0 0
      vertex 50.4 0 0.7
    endloop
  endfacet
  facet normal 0 -1 0
    outer loop
      vertex 50.4 0 0.7
      vertex 69.6322 0 0
      vertex 51.6 0 0.7
    endloop
  endfacet
  facet normal 0 -1 0
    outer loop
      vertex 51.6 0 0.7
      vertex 69.6322 0 0
      vertex 52.4 0 0.7
    endloop
  endfacet
  facet normal 0 -1 0
    outer loop
      vertex 52.4 0 0.7
      vertex 69.6322 0 0
      vertex 53.6 0 0.7
    endloop
  endfacet
  facet normal 0 -1 0
    outer loop
      vertex 53.6 0 0.7
      vertex 69.6322 0 0
      vertex 54.4 0 0.7
    endloop
  endfacet
  facet normal 0 -1 0
    outer loop
      vertex 54.4 0 0.7
      vertex 69.6322 0 0
      vertex 55.6 0 0.7
    endloop
  endfacet
  facet normal 0 -1 0
    outer loop
      vertex 55.6 0 0.7
      vertex 69.6322 0 0
      vertex 56.4 0 0.7
    endloop
  endfacet
  facet normal 0 -1 0
    outer loop
      vertex 56.4 0 0.7
      vertex 69.6322 0 0
      vertex 57.6 0 0.7
    endloop
  endfacet
  facet normal 0 -1 0
    outer loop
      vertex 57.6 0 0.7
      vertex 69.6322 0 0
      vertex 58.4 0 0.7
    endloop
  endfacet
  facet normal 0 -1 0
    outer loop
      vertex 58.4 0 0.7
      vertex 69.6322 0 0
      vertex 59.6 0 0.7
    endloop
  endfacet
  facet normal 0 -1 0
    outer loop
      vertex 59.6 0 0.7
      vertex 69.6322 0 0
      vertex 60.4 0 0.7
    endloop
  endfacet
  facet normal 0 -1 0
    outer loop
      vertex 60.4 0 0.7
      vertex 69.6322 0 0
      vertex 61.6 0 0.7
    endloop
  endfacet
  facet normal 0 -1 0
    outer loop
      vertex 61.6 0 0.7
      vertex 69.6322 0 0
      vertex 62.4 0 0.7
    endloop
  endfacet
  facet normal 0 -1 0
    outer loop
      vertex 62.4 0 0.7
      vertex 69.6322 0 0
      vertex 63.6 0 0.7
    endloop
  endfacet
  facet normal 0 -1 0
    outer loop
      vertex 63.6 0 0.7
      vertex 69.6322 0 0
      vertex 64.4 0 0.7
    endloop
  endfacet
  facet normal 0 -1 0
    outer loop
      vertex 64.4 0 0.7
      vertex 69.6322 0 0
      vertex 65.6 0 0.7
    endloop
  endfacet
  facet normal 0 -1 0
    outer loop
      vertex 0 0 0
      vertex 1.6 0 0.7
      vertex 0 0 1
    endloop
  endfacet
  facet normal 0 -1 0
    outer loop
      vertex 2.4 0 0.7
      vertex 3.6 0 1
      vertex 2.4 0 1
    endloop
  endfacet
  facet normal 0 -1 -0
    outer loop
      vertex 3.6 0 1
      vertex 2.4 0 0.7
      vertex 3.6 0 0.7
    endloop
  endfacet
  facet normal 0 -1 0
    outer loop
      vertex 4.4 0 0.7
      vertex 5.6 0 1
      vertex 4.4 0 1
    endloop
  endfacet
  facet normal 0 -1 -0
    outer loop
      vertex 5.6 0 1
      vertex 4.4 0 0.7
      vertex 5.6 0 0.7
    endloop
  endfacet
  facet normal 0 -1 0
    outer loop
      vertex 6.4 0 0.7
      vertex 7.6 0 1
      vertex 6.4 0 1
    endloop
  endfacet
  facet normal 0 -1 -0
    outer loop
      vertex 7.6 0 1
      vertex 6.4 0 0.7
      vertex 7.6 0 0.7
    endloop
  endfacet
  facet normal 0 -1 0
    outer loop
      vertex 8.4 0 0.7
      vertex 9.6 0 1
      vertex 8.4 0 1
    endloop
  endfacet
  facet normal 0 -1 -0
    outer loop
      vertex 9.6 0 1
      vertex 8.4 0 0.7
      vertex 9.6 0 0.7
    endloop
  endfacet
  facet normal 0 -1 0
    outer loop
      vertex 10.4 0 0.7
      vertex 11.6 0 1
      vertex 10.4 0 1
    endloop
  endfacet
  facet normal 0 -1 -0
    outer loop
      vertex 11.6 0 1
      vertex 10.4 0 0.7
      vertex 11.6 0 0.7
    endloop
  endfacet
  facet normal 0 -1 0
    outer loop
      vertex 12.4 0 0.7
      vertex 13.6 0 1
      vertex 12.4 0 1
    endloop
  endfacet
  facet normal 0 -1 -0
    outer loop
      vertex 13.6 0 1
      vertex 12.4 0 0.7
      vertex 13.6 0 0.7
    endloop
  endfacet
  facet normal 0 -1 0
    outer loop
      vertex 14.4 0 0.7
      vertex 15.6 0 1
      vertex 14.4 0 1
    endloop
  endfacet
  facet normal 0 -1 -0
    outer loop
      vertex 15.6 0 1
      vertex 14.4 0 0.7
      vertex 15.6 0 0.7
    endloop
  endfacet
  facet normal 0 -1 0
    outer loop
      vertex 16.4 0 0.7
      vertex 17.6 0 1
      vertex 16.4 0 1
    endloop
  endfacet
  facet normal 0 -1 -0
    outer loop
      vertex 17.6 0 1
      vertex 16.4 0 0.7
      vertex 17.6 0 0.7
    endloop
  endfacet
  facet normal 0 -1 0
    outer loop
      vertex 18.4 0 0.7
      vertex 19.6 0 1
      vertex 18.4 0 1
    endloop
  endfacet
  facet normal 0 -1 -0
    outer loop
      vertex 19.6 0 1
      vertex 18.4 0 0.7
      vertex 19.6 0 0.7
    endloop
  endfacet
  facet normal 0 -1 0
    outer loop
      vertex 20.4 0 0.7
      vertex 21.6 0 1
      vertex 20.4 0 1
    endloop
  endfacet
  facet normal 0 -1 -0
    outer loop
      vertex 21.6 0 1
      vertex 20.4 0 0.7
      vertex 21.6 0 0.7
    endloop
  endfacet
  facet normal 0 -1 0
    outer loop
      vertex 22.4 0 0.7
      vertex 23.6 0 1
      vertex 22.4 0 1
    endloop
  endfacet
  facet normal 0 -1 -0
    outer loop
      vertex 23.6 0 1
      vertex 22.4 0 0.7
      vertex 23.6 0 0.7
    endloop
  endfacet
  facet normal 0 -1 0
    outer loop
      vertex 24.4 0 0.7
      vertex 25.6 0 1
      vertex 24.4 0 1
    endloop
  endfacet
  facet normal 0 -1 -0
    outer loop
      vertex 25.6 0 1
      vertex 24.4 0 0.7
      vertex 25.6 0 0.7
    endloop
  endfacet
  facet normal 0 -1 0
    outer loop
      vertex 26.4 0 0.7
      vertex 27.6 0 1
      vertex 26.4 0 1
    endloop
  endfacet
  facet normal 0 -1 -0
    outer loop
      vertex 27.6 0 1
      vertex 26.4 0 0.7
      vertex 27.6 0 0.7
    endloop
  endfacet
  facet normal 0 -1 0
    outer loop
      vertex 28.4 0 0.7
      vertex 29.6 0 1
      vertex 28.4 0 1
    endloop
  endfacet
  facet normal 0 -1 -0
    outer loop
      vertex 29.6 0 1
      vertex 28.4 0 0.7
      vertex 29.6 0 0.7
    endloop
  endfacet
  facet normal 0 -1 0
    outer loop
      vertex 30.4 0 0.7
      vertex 31.6 0 1
      vertex 30.4 0 1
    endloop
  endfacet
  facet normal 0 -1 -0
    outer loop
      vertex 31.6 0 1
      vertex 30.4 0 0.7
      vertex 31.6 0 0.7
    endloop
  endfacet
  facet normal 0 -1 0
    outer loop
      vertex 32.4 0 0.7
      vertex 33.6 0 1
      vertex 32.4 0 1
    endloop
  endfacet
  facet normal 0 -1 -0
    outer loop
      vertex 33.6 0 1
      vertex 32.4 0 0.7
      vertex 33.6 0 0.7
    endloop
  endfacet
  facet normal 0 -1 0
    outer loop
      vertex 34.4 0 0.7
      vertex 35.6 0 1
      vertex 34.4 0 1
    endloop
  endfacet
  facet normal 0 -1 -0
    outer loop
      vertex 35.6 0 1
      vertex 34.4 0 0.7
      vertex 35.6 0 0.7
    endloop
  endfacet
  facet normal 0 -1 0
    outer loop
      vertex 36.4 0 0.7
      vertex 37.6 0 1
      vertex 36.4 0 1
    endloop
  endfacet
  facet normal 0 -1 -0
    outer loop
      vertex 37.6 0 1
      vertex 36.4 0 0.7
      vertex 37.6 0 0.7
    endloop
  endfacet
  facet normal 0 -1 0
    outer loop
      vertex 38.4 0 0.7
      vertex 39.6 0 1
      vertex 38.4 0 1
    endloop
  endfacet
  facet normal 0 -1 -0
    outer loop
      vertex 39.6 0 1
      vertex 38.4 0 0.7
      vertex 39.6 0 0.7
    endloop
  endfacet
  facet normal 0 -1 0
    outer loop
      vertex 40.4 0 0.7
      vertex 41.6 0 1
      vertex 40.4 0 1
    endloop
  endfacet
  facet normal 0 -1 -0
    outer loop
      vertex 41.6 0 1
      vertex 40.4 0 0.7
      vertex 41.6 0 0.7
    endloop
  endfacet
  facet normal 0 -1 0
    outer loop
      vertex 42.4 0 0.7
      vertex 43.6 0 1
      vertex 42.4 0 1
    endloop
  endfacet
  facet normal 0 -1 -0
    outer loop
      vertex 43.6 0 1
      vertex 42.4 0 0.7
      vertex 43.6 0 0.7
    endloop
  endfacet
  facet normal 0 -1 0
    outer loop
      vertex 44.4 0 0.7
      vertex 45.6 0 1
      vertex 44.4 0 1
    endloop
  endfacet
  facet normal 0 -1 -0
    outer loop
      vertex 45.6 0 1
      vertex 44.4 0 0.7
      vertex 45.6 0 0.7
    endloop
  endfacet
  facet normal 0 -1 0
    outer loop
      vertex 46.4 0 0.7
      vertex 47.6 0 1
      vertex 46.4 0 1
    endloop
  endfacet
  facet normal 0 -1 -0
    outer loop
      vertex 47.6 0 1
      vertex 46.4 0 0.7
      vertex 47.6 0 0.7
    endloop
  endfacet
  facet normal 0 -1 0
    outer loop
      vertex 48.4 0 0.7
      vertex 49.6 0 1
      vertex 48.4 0 1
    endloop
  endfacet
  facet normal 0 -1 -0
    outer loop
      vertex 49.6 0 1
      vertex 48.4 0 0.7
      vertex 49.6 0 0.7
    endloop
  endfacet
  facet normal 0 -1 0
    outer loop
      vertex 50.4 0 0.7
      vertex 51.6 0 1
      vertex 50.4 0 1
    endloop
  endfacet
  facet normal 0 -1 -0
    outer loop
      vertex 51.6 0 1
      vertex 50.4 0 0.7
      vertex 51.6 0 0.7
    endloop
  endfacet
  facet normal 0 -1 0
    outer loop
      vertex 52.4 0 0.7
      vertex 53.6 0 1
      vertex 52.4 0 1
    endloop
  endfacet
  facet normal 0 -1 -0
    outer loop
      vertex 53.6 0 1
      vertex 52.4 0 0.7
      vertex 53.6 0 0.7
    endloop
  endfacet
  facet normal 0 -1 0
    outer loop
      vertex 54.4 0 0.7
      vertex 55.6 0 1
      vertex 54.4 0 1
    endloop
  endfacet
  facet normal 0 -1 -0
    outer loop
      vertex 55.6 0 1
      vertex 54.4 0 0.7
      vertex 55.6 0 0.7
    endloop
  endfacet
  facet normal 0 -1 0
    outer loop
      vertex 56.4 0 0.7
      vertex 57.6 0 1
      vertex 56.4 0 1
    endloop
  endfacet
  facet normal 0 -1 -0
    outer loop
      vertex 57.6 0 1
      vertex 56.4 0 0.7
      vertex 57.6 0 0.7
    endloop
  endfacet
  facet normal 0 -1 0
    outer loop
      vertex 58.4 0 0.7
      vertex 59.6 0 1
      vertex 58.4 0 1
    endloop
  endfacet
  facet normal 0 -1 -0
    outer loop
      vertex 59.6 0 1
      vertex 58.4 0 0.7
      vertex 59.6 0 0.7
    endloop
  endfacet
  facet normal 0 -1 0
    outer loop
      vertex 60.4 0 0.7
      vertex 61.6 0 1
      vertex 60.4 0 1
    endloop
  endfacet
  facet normal 0 -1 -0
    outer loop
      vertex 61.6 0 1
      vertex 60.4 0 0.7
      vertex 61.6 0 0.7
    endloop
  endfacet
  facet normal 0 -1 0
    outer loop
      vertex 62.4 0 0.7
      vertex 63.6 0 1
      vertex 62.4 0 1
    endloop
  endfacet
  facet normal 0 -1 -0
    outer loop
      vertex 63.6 0 1
      vertex 62.4 0 0.7
      vertex 63.6 0 0.7
    endloop
  endfacet
  facet normal 0 -1 0
    outer loop
      vertex 64.4 0 0.7
      vertex 65.6 0 1
      vertex 64.4 0 1
    endloop
  endfacet
  facet normal 0 -1 -0
    outer loop
      vertex 65.6 0 1
      vertex 64.4 0 0.7
      vertex 65.6 0 0.7
    endloop
  endfacet
  facet normal 0 -1 0
    outer loop
      vertex 66.4 0 0.7
      vertex 69.6322 0 1
      vertex 66.4 0 1
    endloop
  endfacet
  facet normal 0 -1 0
    outer loop
      vertex 66.4 0 0.7
      vertex 69.6322 0 0
      vertex 69.6322 0 1
    endloop
  endfacet
  facet normal 0 -1 0
    outer loop
      vertex 65.6 0 0.7
      vertex 69.6322 0 0
      vertex 66.4 0 0.7
    endloop
  endfacet
endsolid OpenSCAD_Model
