solid OpenSCAD_Model
  facet normal -0 0 1
    outer loop
      vertex 0 7.8454 0.7
      vertex 13.6115 7.0454 0.7
      vertex 13.6115 7.8454 0.7
    endloop
  endfacet
  facet normal 0 0 1
    outer loop
      vertex 13.6115 7.0454 0.7
      vertex 0 7.8454 0.7
      vertex 0 7.0454 0.7
    endloop
  endfacet
  facet normal -0 0 1
    outer loop
      vertex 0 15.2908 0.7
      vertex 13.6115 14.4908 0.7
      vertex 13.6115 15.2908 0.7
    endloop
  endfacet
  facet normal 0 0 1
    outer loop
      vertex 13.6115 14.4908 0.7
      vertex 0 15.2908 0.7
      vertex 0 14.4908 0.7
    endloop
  endfacet
  facet normal -0 0 1
    outer loop
      vertex 0 22.7362 0.7
      vertex 13.6115 21.9362 0.7
      vertex 13.6115 22.7362 0.7
    endloop
  endfacet
  facet normal 0 0 1
    outer loop
      vertex 13.6115 21.9362 0.7
      vertex 0 22.7362 0.7
      vertex 0 21.9362 0.7
    endloop
  endfacet
  facet normal 0 0 1
    outer loop
      vertex 13.6115 22.7362 0.7
      vertex 14.4115 22.7362 0.7
      vertex 14.4115 29.7816 0.7
    endloop
  endfacet
  facet normal 0 0 1
    outer loop
      vertex 14.4115 22.7362 0.7
      vertex 13.6115 22.7362 0.7
      vertex 14.4115 21.9362 0.7
    endloop
  endfacet
  facet normal 0 0 1
    outer loop
      vertex 14.4115 21.9362 0.7
      vertex 13.6115 21.9362 0.7
      vertex 14.4115 15.2908 0.7
    endloop
  endfacet
  facet normal 0 0 1
    outer loop
      vertex 13.6115 15.2908 0.7
      vertex 14.4115 15.2908 0.7
      vertex 13.6115 21.9362 0.7
    endloop
  endfacet
  facet normal 0 0 1
    outer loop
      vertex 13.6115 14.4908 0.7
      vertex 14.4115 14.4908 0.7
      vertex 13.6115 15.2908 0.7
    endloop
  endfacet
  facet normal 0 0 1
    outer loop
      vertex 14.4115 14.4908 0.7
      vertex 13.6115 14.4908 0.7
      vertex 14.4115 7.8454 0.7
    endloop
  endfacet
  facet normal 0 0 1
    outer loop
      vertex 13.6115 22.7362 0.7
      vertex 14.4115 29.7816 0.7
      vertex 13.6115 29.7816 0.7
    endloop
  endfacet
  facet normal 0 0 1
    outer loop
      vertex 14.4115 21.9362 0.7
      vertex 13.6115 22.7362 0.7
      vertex 13.6115 21.9362 0.7
    endloop
  endfacet
  facet normal 0 0 1
    outer loop
      vertex 14.4115 15.2908 0.7
      vertex 13.6115 15.2908 0.7
      vertex 14.4115 14.4908 0.7
    endloop
  endfacet
  facet normal 0 0 1
    outer loop
      vertex 13.6115 7.8454 0.7
      vertex 14.4115 7.8454 0.7
      vertex 13.6115 14.4908 0.7
    endloop
  endfacet
  facet normal 0 0 1
    outer loop
      vertex 14.4115 7.8454 0.7
      vertex 13.6115 7.8454 0.7
      vertex 14.4115 7.0454 0.7
    endloop
  endfacet
  facet normal 0 0 1
    outer loop
      vertex 13.6115 7.0454 0.7
      vertex 14.4115 7.0454 0.7
      vertex 13.6115 7.8454 0.7
    endloop
  endfacet
  facet normal 0 0 1
    outer loop
      vertex 14.4115 7.0454 0.7
      vertex 13.6115 7.0454 0.7
      vertex 14.4115 0 0.7
    endloop
  endfacet
  facet normal 0 0 1
    outer loop
      vertex 14.4115 0 0.7
      vertex 13.6115 7.0454 0.7
      vertex 13.6115 0 0.7
    endloop
  endfacet
  facet normal -0 0 1
    outer loop
      vertex 14.4115 22.7362 0.7
      vertex 28.023 21.9362 0.7
      vertex 28.023 22.7362 0.7
    endloop
  endfacet
  facet normal 0 0 1
    outer loop
      vertex 28.023 21.9362 0.7
      vertex 14.4115 22.7362 0.7
      vertex 14.4115 21.9362 0.7
    endloop
  endfacet
  facet normal -0 0 1
    outer loop
      vertex 14.4115 15.2908 0.7
      vertex 28.023 14.4908 0.7
      vertex 28.023 15.2908 0.7
    endloop
  endfacet
  facet normal 0 0 1
    outer loop
      vertex 28.023 14.4908 0.7
      vertex 14.4115 15.2908 0.7
      vertex 14.4115 14.4908 0.7
    endloop
  endfacet
  facet normal -0 0 1
    outer loop
      vertex 14.4115 7.8454 0.7
      vertex 28.023 7.0454 0.7
      vertex 28.023 7.8454 0.7
    endloop
  endfacet
  facet normal 0 0 1
    outer loop
      vertex 28.023 7.0454 0.7
      vertex 14.4115 7.8454 0.7
      vertex 14.4115 7.0454 0.7
    endloop
  endfacet
  facet normal 0 -1 0
    outer loop
      vertex 0 7.8454 0.7
      vertex 13.6115 7.8454 1
      vertex 0 7.8454 1
    endloop
  endfacet
  facet normal 0 -1 -0
    outer loop
      vertex 13.6115 7.8454 1
      vertex 0 7.8454 0.7
      vertex 13.6115 7.8454 0.7
    endloop
  endfacet
  facet normal 0 -1 0
    outer loop
      vertex 14.4115 7.8454 0.7
      vertex 28.023 7.8454 1
      vertex 14.4115 7.8454 1
    endloop
  endfacet
  facet normal 0 -1 -0
    outer loop
      vertex 28.023 7.8454 1
      vertex 14.4115 7.8454 0.7
      vertex 28.023 7.8454 0.7
    endloop
  endfacet
  facet normal 0 1 -0
    outer loop
      vertex 13.6115 7.0454 0.7
      vertex 0 7.0454 1
      vertex 13.6115 7.0454 1
    endloop
  endfacet
  facet normal 0 1 0
    outer loop
      vertex 0 7.0454 1
      vertex 13.6115 7.0454 0.7
      vertex 0 7.0454 0.7
    endloop
  endfacet
  facet normal 0 1 -0
    outer loop
      vertex 28.023 7.0454 0.7
      vertex 14.4115 7.0454 1
      vertex 28.023 7.0454 1
    endloop
  endfacet
  facet normal 0 1 0
    outer loop
      vertex 14.4115 7.0454 1
      vertex 28.023 7.0454 0.7
      vertex 14.4115 7.0454 0.7
    endloop
  endfacet
  facet normal 0 -1 0
    outer loop
      vertex 0 15.2908 0.7
      vertex 13.6115 15.2908 1
      vertex 0 15.2908 1
    endloop
  endfacet
  facet normal 0 -1 -0
    outer loop
      vertex 13.6115 15.2908 1
      vertex 0 15.2908 0.7
      vertex 13.6115 15.2908 0.7
    endloop
  endfacet
  facet normal 0 -1 0
    outer loop
      vertex 14.4115 15.2908 0.7
      vertex 28.023 15.2908 1
      vertex 14.4115 15.2908 1
    endloop
  endfacet
  facet normal 0 -1 -0
    outer loop
      vertex 28.023 15.2908 1
      vertex 14.4115 15.2908 0.7
      vertex 28.023 15.2908 0.7
    endloop
  endfacet
  facet normal 0 1 -0
    outer loop
      vertex 13.6115 14.4908 0.7
      vertex 0 14.4908 1
      vertex 13.6115 14.4908 1
    endloop
  endfacet
  facet normal 0 1 0
    outer loop
      vertex 0 14.4908 1
      vertex 13.6115 14.4908 0.7
      vertex 0 14.4908 0.7
    endloop
  endfacet
  facet normal 0 1 -0
    outer loop
      vertex 28.023 14.4908 0.7
      vertex 14.4115 14.4908 1
      vertex 28.023 14.4908 1
    endloop
  endfacet
  facet normal 0 1 0
    outer loop
      vertex 14.4115 14.4908 1
      vertex 28.023 14.4908 0.7
      vertex 14.4115 14.4908 0.7
    endloop
  endfacet
  facet normal 0 -1 0
    outer loop
      vertex 0 22.7362 0.7
      vertex 13.6115 22.7362 1
      vertex 0 22.7362 1
    endloop
  endfacet
  facet normal 0 -1 -0
    outer loop
      vertex 13.6115 22.7362 1
      vertex 0 22.7362 0.7
      vertex 13.6115 22.7362 0.7
    endloop
  endfacet
  facet normal 0 -1 0
    outer loop
      vertex 14.4115 22.7362 0.7
      vertex 28.023 22.7362 1
      vertex 14.4115 22.7362 1
    endloop
  endfacet
  facet normal 0 -1 -0
    outer loop
      vertex 28.023 22.7362 1
      vertex 14.4115 22.7362 0.7
      vertex 28.023 22.7362 0.7
    endloop
  endfacet
  facet normal 0 1 -0
    outer loop
      vertex 13.6115 21.9362 0.7
      vertex 0 21.9362 1
      vertex 13.6115 21.9362 1
    endloop
  endfacet
  facet normal 0 1 0
    outer loop
      vertex 0 21.9362 1
      vertex 13.6115 21.9362 0.7
      vertex 0 21.9362 0.7
    endloop
  endfacet
  facet normal 0 1 -0
    outer loop
      vertex 28.023 21.9362 0.7
      vertex 14.4115 21.9362 1
      vertex 28.023 21.9362 1
    endloop
  endfacet
  facet normal 0 1 0
    outer loop
      vertex 14.4115 21.9362 1
      vertex 28.023 21.9362 0.7
      vertex 14.4115 21.9362 0.7
    endloop
  endfacet
  facet normal 1 0 0
    outer loop
      vertex 28.023 7.0454 1
      vertex 28.023 0 1
      vertex 28.023 7.0454 0.7
    endloop
  endfacet
  facet normal 1 0 0
    outer loop
      vertex 28.023 14.4908 1
      vertex 28.023 7.8454 1
      vertex 28.023 14.4908 0.7
    endloop
  endfacet
  facet normal 1 0 0
    outer loop
      vertex 28.023 21.9362 1
      vertex 28.023 15.2908 1
      vertex 28.023 21.9362 0.7
    endloop
  endfacet
  facet normal 1 0 0
    outer loop
      vertex 28.023 22.7362 0.7
      vertex 28.023 29.7816 1
      vertex 28.023 22.7362 1
    endloop
  endfacet
  facet normal 1 0 0
    outer loop
      vertex 28.023 29.7816 1
      vertex 28.023 22.7362 0.7
      vertex 28.023 29.7816 0
    endloop
  endfacet
  facet normal 1 -0 0
    outer loop
      vertex 28.023 21.9362 0.7
      vertex 28.023 29.7816 0
      vertex 28.023 22.7362 0.7
    endloop
  endfacet
  facet normal 1 0 0
    outer loop
      vertex 28.023 15.2908 0.7
      vertex 28.023 21.9362 0.7
      vertex 28.023 15.2908 1
    endloop
  endfacet
  facet normal 1 0 0
    outer loop
      vertex 28.023 21.9362 0.7
      vertex 28.023 15.2908 0.7
      vertex 28.023 29.7816 0
    endloop
  endfacet
  facet normal 1 -0 0
    outer loop
      vertex 28.023 14.4908 0.7
      vertex 28.023 29.7816 0
      vertex 28.023 15.2908 0.7
    endloop
  endfacet
  facet normal 1 0 0
    outer loop
      vertex 28.023 7.8454 0.7
      vertex 28.023 14.4908 0.7
      vertex 28.023 7.8454 1
    endloop
  endfacet
  facet normal 1 0 0
    outer loop
      vertex 28.023 0 0
      vertex 28.023 14.4908 0.7
      vertex 28.023 7.8454 0.7
    endloop
  endfacet
  facet normal 1 0 0
    outer loop
      vertex 28.023 0 0
      vertex 28.023 7.8454 0.7
      vertex 28.023 7.0454 0.7
    endloop
  endfacet
  facet normal 1 0 0
    outer loop
      vertex 28.023 14.4908 0.7
      vertex 28.023 0 0
      vertex 28.023 29.7816 0
    endloop
  endfacet
  facet normal 1 0 0
    outer loop
      vertex 28.023 0 0
      vertex 28.023 7.0454 0.7
      vertex 28.023 0 1
    endloop
  endfacet
  facet normal -0 0 1
    outer loop
      vertex 0 29.7816 1
      vertex 13.6115 22.7362 1
      vertex 13.6115 29.7816 1
    endloop
  endfacet
  facet normal 0 0 1
    outer loop
      vertex 13.6115 22.7362 1
      vertex 0 29.7816 1
      vertex 0 22.7362 1
    endloop
  endfacet
  facet normal -0 0 1
    outer loop
      vertex 14.4115 29.7816 1
      vertex 28.023 22.7362 1
      vertex 28.023 29.7816 1
    endloop
  endfacet
  facet normal 0 0 1
    outer loop
      vertex 28.023 22.7362 1
      vertex 14.4115 29.7816 1
      vertex 14.4115 22.7362 1
    endloop
  endfacet
  facet normal -0 0 1
    outer loop
      vertex 0 7.0454 1
      vertex 13.6115 0 1
      vertex 13.6115 7.0454 1
    endloop
  endfacet
  facet normal 0 0 1
    outer loop
      vertex 13.6115 0 1
      vertex 0 7.0454 1
      vertex 0 0 1
    endloop
  endfacet
  facet normal -0 0 1
    outer loop
      vertex 14.4115 7.0454 1
      vertex 28.023 0 1
      vertex 28.023 7.0454 1
    endloop
  endfacet
  facet normal 0 0 1
    outer loop
      vertex 28.023 0 1
      vertex 14.4115 7.0454 1
      vertex 14.4115 0 1
    endloop
  endfacet
  facet normal -0 0 1
    outer loop
      vertex 0 14.4908 1
      vertex 13.6115 7.8454 1
      vertex 13.6115 14.4908 1
    endloop
  endfacet
  facet normal 0 0 1
    outer loop
      vertex 13.6115 7.8454 1
      vertex 0 14.4908 1
      vertex 0 7.8454 1
    endloop
  endfacet
  facet normal -0 0 1
    outer loop
      vertex 14.4115 14.4908 1
      vertex 28.023 7.8454 1
      vertex 28.023 14.4908 1
    endloop
  endfacet
  facet normal 0 0 1
    outer loop
      vertex 28.023 7.8454 1
      vertex 14.4115 14.4908 1
      vertex 14.4115 7.8454 1
    endloop
  endfacet
  facet normal -0 0 1
    outer loop
      vertex 0 21.9362 1
      vertex 13.6115 15.2908 1
      vertex 13.6115 21.9362 1
    endloop
  endfacet
  facet normal 0 0 1
    outer loop
      vertex 13.6115 15.2908 1
      vertex 0 21.9362 1
      vertex 0 15.2908 1
    endloop
  endfacet
  facet normal -0 0 1
    outer loop
      vertex 14.4115 21.9362 1
      vertex 28.023 15.2908 1
      vertex 28.023 21.9362 1
    endloop
  endfacet
  facet normal 0 0 1
    outer loop
      vertex 28.023 15.2908 1
      vertex 14.4115 21.9362 1
      vertex 14.4115 15.2908 1
    endloop
  endfacet
  facet normal 0 0 -1
    outer loop
      vertex 0 0 0
      vertex 28.023 29.7816 0
      vertex 28.023 0 0
    endloop
  endfacet
  facet normal -0 0 -1
    outer loop
      vertex 28.023 29.7816 0
      vertex 0 0 0
      vertex 0 29.7816 0
    endloop
  endfacet
  facet normal -1 0 0
    outer loop
      vertex 0 29.7816 0
      vertex 0 22.7362 0.7
      vertex 0 29.7816 1
    endloop
  endfacet
  facet normal -1 0 0
    outer loop
      vertex 0 29.7816 0
      vertex 0 21.9362 0.7
      vertex 0 22.7362 0.7
    endloop
  endfacet
  facet normal -1 0 0
    outer loop
      vertex 0 21.9362 0.7
      vertex 0 15.2908 0.7
      vertex 0 21.9362 1
    endloop
  endfacet
  facet normal -1 0 0
    outer loop
      vertex 0 29.7816 0
      vertex 0 15.2908 0.7
      vertex 0 21.9362 0.7
    endloop
  endfacet
  facet normal -1 0 0
    outer loop
      vertex 0 29.7816 0
      vertex 0 14.4908 0.7
      vertex 0 15.2908 0.7
    endloop
  endfacet
  facet normal -1 0 0
    outer loop
      vertex 0 14.4908 0.7
      vertex 0 7.8454 0.7
      vertex 0 14.4908 1
    endloop
  endfacet
  facet normal -1 0 0
    outer loop
      vertex 0 0 0
      vertex 0 14.4908 0.7
      vertex 0 29.7816 0
    endloop
  endfacet
  facet normal -1 -0 0
    outer loop
      vertex 0 14.4908 0.7
      vertex 0 0 0
      vertex 0 7.8454 0.7
    endloop
  endfacet
  facet normal -1 -0 0
    outer loop
      vertex 0 7.8454 0.7
      vertex 0 0 0
      vertex 0 7.0454 0.7
    endloop
  endfacet
  facet normal -1 0 0
    outer loop
      vertex 0 0 1
      vertex 0 7.0454 0.7
      vertex 0 0 0
    endloop
  endfacet
  facet normal -1 0 0
    outer loop
      vertex 0 7.0454 0.7
      vertex 0 0 1
      vertex 0 7.0454 1
    endloop
  endfacet
  facet normal -1 -0 0
    outer loop
      vertex 0 29.7816 1
      vertex 0 22.7362 0.7
      vertex 0 22.7362 1
    endloop
  endfacet
  facet normal -1 -0 0
    outer loop
      vertex 0 21.9362 1
      vertex 0 15.2908 0.7
      vertex 0 15.2908 1
    endloop
  endfacet
  facet normal -1 -0 0
    outer loop
      vertex 0 14.4908 1
      vertex 0 7.8454 0.7
      vertex 0 7.8454 1
    endloop
  endfacet
  facet normal 0 1 0
    outer loop
      vertex 28.023 29.7816 1
      vertex 14.4115 29.7816 0.7
      vertex 14.4115 29.7816 1
    endloop
  endfacet
  facet normal 0 1 0
    outer loop
      vertex 14.4115 29.7816 0.7
      vertex 28.023 29.7816 0
      vertex 13.6115 29.7816 0.7
    endloop
  endfacet
  facet normal 0 1 -0
    outer loop
      vertex 28.023 29.7816 0
      vertex 14.4115 29.7816 0.7
      vertex 28.023 29.7816 1
    endloop
  endfacet
  facet normal 0 1 -0
    outer loop
      vertex 13.6115 29.7816 0.7
      vertex 0 29.7816 1
      vertex 13.6115 29.7816 1
    endloop
  endfacet
  facet normal 0 1 0
    outer loop
      vertex 0 29.7816 0
      vertex 13.6115 29.7816 0.7
      vertex 28.023 29.7816 0
    endloop
  endfacet
  facet normal 0 1 0
    outer loop
      vertex 13.6115 29.7816 0.7
      vertex 0 29.7816 0
      vertex 0 29.7816 1
    endloop
  endfacet
  facet normal 0 -1 0
    outer loop
      vertex 0 0 1
      vertex 13.6115 0 0.7
      vertex 13.6115 0 1
    endloop
  endfacet
  facet normal 0 -1 -0
    outer loop
      vertex 13.6115 0 0.7
      vertex 0 0 0
      vertex 14.4115 0 0.7
    endloop
  endfacet
  facet normal 0 -1 0
    outer loop
      vertex 0 0 0
      vertex 13.6115 0 0.7
      vertex 0 0 1
    endloop
  endfacet
  facet normal 0 -1 0
    outer loop
      vertex 14.4115 0 0.7
      vertex 28.023 0 1
      vertex 14.4115 0 1
    endloop
  endfacet
  facet normal 0 -1 0
    outer loop
      vertex 28.023 0 0
      vertex 14.4115 0 0.7
      vertex 0 0 0
    endloop
  endfacet
  facet normal 0 -1 0
    outer loop
      vertex 14.4115 0 0.7
      vertex 28.023 0 0
      vertex 28.023 0 1
    endloop
  endfacet
  facet normal -1 0 0
    outer loop
      vertex 14.4115 22.7362 0.7
      vertex 14.4115 29.7816 1
      vertex 14.4115 29.7816 0.7
    endloop
  endfacet
  facet normal -1 -0 0
    outer loop
      vertex 14.4115 29.7816 1
      vertex 14.4115 22.7362 0.7
      vertex 14.4115 22.7362 1
    endloop
  endfacet
  facet normal -1 0 0
    outer loop
      vertex 14.4115 15.2908 0.7
      vertex 14.4115 21.9362 1
      vertex 14.4115 21.9362 0.7
    endloop
  endfacet
  facet normal -1 -0 0
    outer loop
      vertex 14.4115 21.9362 1
      vertex 14.4115 15.2908 0.7
      vertex 14.4115 15.2908 1
    endloop
  endfacet
  facet normal -1 0 0
    outer loop
      vertex 14.4115 7.8454 0.7
      vertex 14.4115 14.4908 1
      vertex 14.4115 14.4908 0.7
    endloop
  endfacet
  facet normal -1 -0 0
    outer loop
      vertex 14.4115 14.4908 1
      vertex 14.4115 7.8454 0.7
      vertex 14.4115 7.8454 1
    endloop
  endfacet
  facet normal -1 0 0
    outer loop
      vertex 14.4115 0 0.7
      vertex 14.4115 7.0454 1
      vertex 14.4115 7.0454 0.7
    endloop
  endfacet
  facet normal -1 -0 0
    outer loop
      vertex 14.4115 7.0454 1
      vertex 14.4115 0 0.7
      vertex 14.4115 0 1
    endloop
  endfacet
  facet normal 1 -0 0
    outer loop
      vertex 13.6115 22.7362 1
      vertex 13.6115 29.7816 0.7
      vertex 13.6115 29.7816 1
    endloop
  endfacet
  facet normal 1 0 0
    outer loop
      vertex 13.6115 29.7816 0.7
      vertex 13.6115 22.7362 1
      vertex 13.6115 22.7362 0.7
    endloop
  endfacet
  facet normal 1 -0 0
    outer loop
      vertex 13.6115 15.2908 1
      vertex 13.6115 21.9362 0.7
      vertex 13.6115 21.9362 1
    endloop
  endfacet
  facet normal 1 0 0
    outer loop
      vertex 13.6115 21.9362 0.7
      vertex 13.6115 15.2908 1
      vertex 13.6115 15.2908 0.7
    endloop
  endfacet
  facet normal 1 -0 0
    outer loop
      vertex 13.6115 7.8454 1
      vertex 13.6115 14.4908 0.7
      vertex 13.6115 14.4908 1
    endloop
  endfacet
  facet normal 1 0 0
    outer loop
      vertex 13.6115 14.4908 0.7
      vertex 13.6115 7.8454 1
      vertex 13.6115 7.8454 0.7
    endloop
  endfacet
  facet normal 1 -0 0
    outer loop
      vertex 13.6115 0 1
      vertex 13.6115 7.0454 0.7
      vertex 13.6115 7.0454 1
    endloop
  endfacet
  facet normal 1 0 0
    outer loop
      vertex 13.6115 7.0454 0.7
      vertex 13.6115 0 1
      vertex 13.6115 0 0.7
    endloop
  endfacet
endsolid OpenSCAD_Model
