solid OpenSCAD_Model
  facet normal -0 0 1
    outer loop
      vertex 0 103.448 1
      vertex 80.4598 0 1
      vertex 80.4598 103.448 1
    endloop
  endfacet
  facet normal 0 0 1
    outer loop
      vertex 80.4598 0 1
      vertex 0 103.448 1
      vertex 0 0 1
    endloop
  endfacet
  facet normal 0 0 -1
    outer loop
      vertex 0 0 0
      vertex 80.4598 103.448 0
      vertex 80.4598 0 0
    endloop
  endfacet
  facet normal -0 0 -1
    outer loop
      vertex 80.4598 103.448 0
      vertex 0 0 0
      vertex 0 103.448 0
    endloop
  endfacet
  facet normal 0 -1 0
    outer loop
      vertex 0 0 0
      vertex 80.4598 0 1
      vertex 0 0 1
    endloop
  endfacet
  facet normal 0 -1 -0
    outer loop
      vertex 80.4598 0 1
      vertex 0 0 0
      vertex 80.4598 0 0
    endloop
  endfacet
  facet normal 1 -0 0
    outer loop
      vertex 80.4598 0 1
      vertex 80.4598 103.448 0
      vertex 80.4598 103.448 1
    endloop
  endfacet
  facet normal 1 0 0
    outer loop
      vertex 80.4598 103.448 0
      vertex 80.4598 0 1
      vertex 80.4598 0 0
    endloop
  endfacet
  facet normal 0 1 -0
    outer loop
      vertex 80.4598 103.448 0
      vertex 0 103.448 1
      vertex 80.4598 103.448 1
    endloop
  endfacet
  facet normal 0 1 0
    outer loop
      vertex 0 103.448 1
      vertex 80.4598 103.448 0
      vertex 0 103.448 0
    endloop
  endfacet
  facet normal -1 0 0
    outer loop
      vertex 0 0 0
      vertex 0 103.448 1
      vertex 0 103.448 0
    endloop
  endfacet
  facet normal -1 -0 0
    outer loop
      vertex 0 103.448 1
      vertex 0 0 0
      vertex 0 0 1
    endloop
  endfacet
endsolid OpenSCAD_Model
