solid OpenSCAD_Model
  facet normal -0 0 1
    outer loop
      vertex 0 27.6 1
      vertex 34.5 0 1
      vertex 34.5 27.6 1
    endloop
  endfacet
  facet normal 0 0 1
    outer loop
      vertex 34.5 0 1
      vertex 0 27.6 1
      vertex 0 0 1
    endloop
  endfacet
  facet normal 0 0 -1
    outer loop
      vertex 0 0 0
      vertex 34.5 27.6 0
      vertex 34.5 0 0
    endloop
  endfacet
  facet normal -0 0 -1
    outer loop
      vertex 34.5 27.6 0
      vertex 0 0 0
      vertex 0 27.6 0
    endloop
  endfacet
  facet normal 0 -1 0
    outer loop
      vertex 0 0 0
      vertex 34.5 0 1
      vertex 0 0 1
    endloop
  endfacet
  facet normal 0 -1 -0
    outer loop
      vertex 34.5 0 1
      vertex 0 0 0
      vertex 34.5 0 0
    endloop
  endfacet
  facet normal 1 -0 0
    outer loop
      vertex 34.5 0 1
      vertex 34.5 27.6 0
      vertex 34.5 27.6 1
    endloop
  endfacet
  facet normal 1 0 0
    outer loop
      vertex 34.5 27.6 0
      vertex 34.5 0 1
      vertex 34.5 0 0
    endloop
  endfacet
  facet normal 0 1 -0
    outer loop
      vertex 34.5 27.6 0
      vertex 0 27.6 1
      vertex 34.5 27.6 1
    endloop
  endfacet
  facet normal 0 1 0
    outer loop
      vertex 0 27.6 1
      vertex 34.5 27.6 0
      vertex 0 27.6 0
    endloop
  endfacet
  facet normal -1 0 0
    outer loop
      vertex 0 0 0
      vertex 0 27.6 1
      vertex 0 27.6 0
    endloop
  endfacet
  facet normal -1 -0 0
    outer loop
      vertex 0 27.6 1
      vertex 0 0 0
      vertex 0 0 1
    endloop
  endfacet
endsolid OpenSCAD_Model
