solid OpenSCAD_Model
  facet normal 1 -0 0
    outer loop
      vertex 20.3853 0 1
      vertex 20.3853 66.2 0
      vertex 20.3853 66.2 1
    endloop
  endfacet
  facet normal 1 0 0
    outer loop
      vertex 20.3853 66.2 0
      vertex 20.3853 0 1
      vertex 20.3853 0 0
    endloop
  endfacet
  facet normal -0 0 1
    outer loop
      vertex 0 66.2 1
      vertex 20.3853 0 1
      vertex 20.3853 66.2 1
    endloop
  endfacet
  facet normal 0 0 1
    outer loop
      vertex 20.3853 0 1
      vertex 0 66.2 1
      vertex 0 0 1
    endloop
  endfacet
  facet normal 0 0 -1
    outer loop
      vertex 0 0 0
      vertex 20.3853 66.2 0
      vertex 20.3853 0 0
    endloop
  endfacet
  facet normal -0 0 -1
    outer loop
      vertex 20.3853 66.2 0
      vertex 0 0 0
      vertex 0 66.2 0
    endloop
  endfacet
  facet normal -1 0 0
    outer loop
      vertex 0 0 0
      vertex 0 66.2 1
      vertex 0 66.2 0
    endloop
  endfacet
  facet normal -1 -0 0
    outer loop
      vertex 0 66.2 1
      vertex 0 0 0
      vertex 0 0 1
    endloop
  endfacet
  facet normal 0 1 -0
    outer loop
      vertex 20.3853 66.2 0
      vertex 0 66.2 1
      vertex 20.3853 66.2 1
    endloop
  endfacet
  facet normal 0 1 0
    outer loop
      vertex 0 66.2 1
      vertex 20.3853 66.2 0
      vertex 0 66.2 0
    endloop
  endfacet
  facet normal 0 -1 0
    outer loop
      vertex 0 0 0
      vertex 20.3853 0 1
      vertex 0 0 1
    endloop
  endfacet
  facet normal 0 -1 -0
    outer loop
      vertex 20.3853 0 1
      vertex 0 0 0
      vertex 20.3853 0 0
    endloop
  endfacet
  facet normal 1 -0 0
    outer loop
      vertex 42.7707 0 1
      vertex 42.7707 66.2 0
      vertex 42.7707 66.2 1
    endloop
  endfacet
  facet normal 1 0 0
    outer loop
      vertex 42.7707 66.2 0
      vertex 42.7707 0 1
      vertex 42.7707 0 0
    endloop
  endfacet
  facet normal -0 0 1
    outer loop
      vertex 22.3853 66.2 1
      vertex 42.7707 0 1
      vertex 42.7707 66.2 1
    endloop
  endfacet
  facet normal 0 0 1
    outer loop
      vertex 42.7707 0 1
      vertex 22.3853 66.2 1
      vertex 22.3853 0 1
    endloop
  endfacet
  facet normal 0 0 -1
    outer loop
      vertex 22.3853 0 0
      vertex 42.7707 66.2 0
      vertex 42.7707 0 0
    endloop
  endfacet
  facet normal -0 0 -1
    outer loop
      vertex 42.7707 66.2 0
      vertex 22.3853 0 0
      vertex 22.3853 66.2 0
    endloop
  endfacet
  facet normal -1 0 0
    outer loop
      vertex 22.3853 0 0
      vertex 22.3853 66.2 1
      vertex 22.3853 66.2 0
    endloop
  endfacet
  facet normal -1 -0 0
    outer loop
      vertex 22.3853 66.2 1
      vertex 22.3853 0 0
      vertex 22.3853 0 1
    endloop
  endfacet
  facet normal 0 1 -0
    outer loop
      vertex 42.7707 66.2 0
      vertex 22.3853 66.2 1
      vertex 42.7707 66.2 1
    endloop
  endfacet
  facet normal 0 1 0
    outer loop
      vertex 22.3853 66.2 1
      vertex 42.7707 66.2 0
      vertex 22.3853 66.2 0
    endloop
  endfacet
  facet normal 0 -1 0
    outer loop
      vertex 22.3853 0 0
      vertex 42.7707 0 1
      vertex 22.3853 0 1
    endloop
  endfacet
  facet normal 0 -1 -0
    outer loop
      vertex 42.7707 0 1
      vertex 22.3853 0 0
      vertex 42.7707 0 0
    endloop
  endfacet
  facet normal 0 0 -1
    outer loop
      vertex 37.5 68.2 0
      vertex 0 68.2 0
      vertex 18.75 76.2 0
    endloop
  endfacet
  facet normal 0 -1 0
    outer loop
      vertex 0 68.2 0
      vertex 37.5 68.2 1
      vertex 0 68.2 1
    endloop
  endfacet
  facet normal 0 -1 -0
    outer loop
      vertex 37.5 68.2 1
      vertex 0 68.2 0
      vertex 37.5 68.2 0
    endloop
  endfacet
  facet normal 0 0 1
    outer loop
      vertex 18.75 76.2 1
      vertex 0 68.2 1
      vertex 37.5 68.2 1
    endloop
  endfacet
  facet normal 0.392439 0.919778 -0
    outer loop
      vertex 37.5 68.2 0
      vertex 18.75 76.2 1
      vertex 37.5 68.2 1
    endloop
  endfacet
  facet normal 0.392439 0.919778 0
    outer loop
      vertex 18.75 76.2 1
      vertex 37.5 68.2 0
      vertex 18.75 76.2 0
    endloop
  endfacet
  facet normal -0.392439 0.919778 0
    outer loop
      vertex 18.75 76.2 0
      vertex 0 68.2 1
      vertex 18.75 76.2 1
    endloop
  endfacet
  facet normal -0.392439 0.919778 0
    outer loop
      vertex 0 68.2 1
      vertex 18.75 76.2 0
      vertex 0 68.2 0
    endloop
  endfacet
  facet normal 0 0 -1
    outer loop
      vertex 77 68.2 0
      vertex 39.5 68.2 0
      vertex 58.25 76.2 0
    endloop
  endfacet
  facet normal 0 -1 0
    outer loop
      vertex 39.5 68.2 0
      vertex 77 68.2 1
      vertex 39.5 68.2 1
    endloop
  endfacet
  facet normal 0 -1 -0
    outer loop
      vertex 77 68.2 1
      vertex 39.5 68.2 0
      vertex 77 68.2 0
    endloop
  endfacet
  facet normal 0 0 1
    outer loop
      vertex 58.25 76.2 1
      vertex 39.5 68.2 1
      vertex 77 68.2 1
    endloop
  endfacet
  facet normal 0.392439 0.919778 -0
    outer loop
      vertex 77 68.2 0
      vertex 58.25 76.2 1
      vertex 77 68.2 1
    endloop
  endfacet
  facet normal 0.392439 0.919778 0
    outer loop
      vertex 58.25 76.2 1
      vertex 77 68.2 0
      vertex 58.25 76.2 0
    endloop
  endfacet
  facet normal -0.392439 0.919778 0
    outer loop
      vertex 58.25 76.2 0
      vertex 39.5 68.2 1
      vertex 58.25 76.2 1
    endloop
  endfacet
  facet normal -0.392439 0.919778 0
    outer loop
      vertex 39.5 68.2 1
      vertex 58.25 76.2 0
      vertex 39.5 68.2 0
    endloop
  endfacet
endsolid OpenSCAD_Model
