solid OpenSCAD_Model
  facet normal 1 -0 0
    outer loop
      vertex 63.2 0 1
      vertex 63.2 27.6 0
      vertex 63.2 27.6 1
    endloop
  endfacet
  facet normal 1 0 0
    outer loop
      vertex 63.2 27.6 0
      vertex 63.2 0 1
      vertex 63.2 0 0
    endloop
  endfacet
  facet normal 0 0 1
    outer loop
      vertex 35.05 13.8 1
      vertex 63.2 27.6 1
      vertex 35.05 20.7 1
    endloop
  endfacet
  facet normal 0 0 1
    outer loop
      vertex 63.2 27.6 1
      vertex 28.15 20.7 1
      vertex 35.05 20.7 1
    endloop
  endfacet
  facet normal 0 0 1
    outer loop
      vertex 28.15 20.7 1
      vertex 0 27.6 1
      vertex 28.15 13.8 1
    endloop
  endfacet
  facet normal -0 0 1
    outer loop
      vertex 0 27.6 1
      vertex 28.15 20.7 1
      vertex 63.2 27.6 1
    endloop
  endfacet
  facet normal 0 0 1
    outer loop
      vertex 63.2 27.6 1
      vertex 35.05 13.8 1
      vertex 63.2 0 1
    endloop
  endfacet
  facet normal -0 0 1
    outer loop
      vertex 28.15 13.8 1
      vertex 63.2 0 1
      vertex 35.05 13.8 1
    endloop
  endfacet
  facet normal 0 0 1
    outer loop
      vertex 28.15 13.8 1
      vertex 0 0 1
      vertex 63.2 0 1
    endloop
  endfacet
  facet normal 0 0 1
    outer loop
      vertex 0 0 1
      vertex 28.15 13.8 1
      vertex 0 27.6 1
    endloop
  endfacet
  facet normal 0 0 -1
    outer loop
      vertex 63.2 0 0
      vertex 35.05 13.8 0
      vertex 63.2 27.6 0
    endloop
  endfacet
  facet normal 0 0 -1
    outer loop
      vertex 63.2 0 0
      vertex 28.15 13.8 0
      vertex 35.05 13.8 0
    endloop
  endfacet
  facet normal 0 0 -1
    outer loop
      vertex 0 27.6 0
      vertex 28.15 13.8 0
      vertex 0 0 0
    endloop
  endfacet
  facet normal 0 0 -1
    outer loop
      vertex 0 0 0
      vertex 28.15 13.8 0
      vertex 63.2 0 0
    endloop
  endfacet
  facet normal 0 0 -1
    outer loop
      vertex 35.05 20.7 0
      vertex 63.2 27.6 0
      vertex 35.05 13.8 0
    endloop
  endfacet
  facet normal 0 0 -1
    outer loop
      vertex 28.15 20.7 0
      vertex 63.2 27.6 0
      vertex 35.05 20.7 0
    endloop
  endfacet
  facet normal 0 0 -1
    outer loop
      vertex 28.15 20.7 0
      vertex 0 27.6 0
      vertex 63.2 27.6 0
    endloop
  endfacet
  facet normal 0 0 -1
    outer loop
      vertex 28.15 13.8 0
      vertex 0 27.6 0
      vertex 28.15 20.7 0
    endloop
  endfacet
  facet normal -1 0 0
    outer loop
      vertex 0 0 0
      vertex 0 27.6 1
      vertex 0 27.6 0
    endloop
  endfacet
  facet normal -1 -0 0
    outer loop
      vertex 0 27.6 1
      vertex 0 0 0
      vertex 0 0 1
    endloop
  endfacet
  facet normal 0 1 -0
    outer loop
      vertex 63.2 27.6 0
      vertex 0 27.6 1
      vertex 63.2 27.6 1
    endloop
  endfacet
  facet normal 0 1 0
    outer loop
      vertex 0 27.6 1
      vertex 63.2 27.6 0
      vertex 0 27.6 0
    endloop
  endfacet
  facet normal 0 -1 0
    outer loop
      vertex 0 0 0
      vertex 63.2 0 1
      vertex 0 0 1
    endloop
  endfacet
  facet normal 0 -1 -0
    outer loop
      vertex 63.2 0 1
      vertex 0 0 0
      vertex 63.2 0 0
    endloop
  endfacet
  facet normal -1 0 0
    outer loop
      vertex 35.05 13.8 0
      vertex 35.05 20.7 1
      vertex 35.05 20.7 0
    endloop
  endfacet
  facet normal -1 -0 0
    outer loop
      vertex 35.05 20.7 1
      vertex 35.05 13.8 0
      vertex 35.05 13.8 1
    endloop
  endfacet
  facet normal 1 -0 0
    outer loop
      vertex 28.15 13.8 1
      vertex 28.15 20.7 0
      vertex 28.15 20.7 1
    endloop
  endfacet
  facet normal 1 0 0
    outer loop
      vertex 28.15 20.7 0
      vertex 28.15 13.8 1
      vertex 28.15 13.8 0
    endloop
  endfacet
  facet normal 0 -1 0
    outer loop
      vertex 28.15 20.7 0
      vertex 35.05 20.7 1
      vertex 28.15 20.7 1
    endloop
  endfacet
  facet normal 0 -1 -0
    outer loop
      vertex 35.05 20.7 1
      vertex 28.15 20.7 0
      vertex 35.05 20.7 0
    endloop
  endfacet
  facet normal 0 1 -0
    outer loop
      vertex 35.05 13.8 0
      vertex 28.15 13.8 1
      vertex 35.05 13.8 1
    endloop
  endfacet
  facet normal 0 1 0
    outer loop
      vertex 28.15 13.8 1
      vertex 35.05 13.8 0
      vertex 28.15 13.8 0
    endloop
  endfacet
endsolid OpenSCAD_Model
