solid OpenSCAD_Model
  facet normal -0 0 1
    outer loop
      vertex 0 4.02299 1.72414
      vertex 8.04598 0 1.72414
      vertex 8.04598 4.02299 1.72414
    endloop
  endfacet
  facet normal 0 0 1
    outer loop
      vertex 8.04598 0 1.72414
      vertex 0 4.02299 1.72414
      vertex 0 0 1.72414
    endloop
  endfacet
  facet normal 0 0 -1
    outer loop
      vertex 0 0 0
      vertex 8.04598 4.02299 0
      vertex 8.04598 0 0
    endloop
  endfacet
  facet normal -0 0 -1
    outer loop
      vertex 8.04598 4.02299 0
      vertex 0 0 0
      vertex 0 4.02299 0
    endloop
  endfacet
  facet normal 0 -1 0
    outer loop
      vertex 0 0 0
      vertex 8.04598 0 1.72414
      vertex 0 0 1.72414
    endloop
  endfacet
  facet normal 0 -1 -0
    outer loop
      vertex 8.04598 0 1.72414
      vertex 0 0 0
      vertex 8.04598 0 0
    endloop
  endfacet
  facet normal 1 -0 0
    outer loop
      vertex 8.04598 0 1.72414
      vertex 8.04598 4.02299 0
      vertex 8.04598 4.02299 1.72414
    endloop
  endfacet
  facet normal 1 0 0
    outer loop
      vertex 8.04598 4.02299 0
      vertex 8.04598 0 1.72414
      vertex 8.04598 0 0
    endloop
  endfacet
  facet normal 0 1 -0
    outer loop
      vertex 8.04598 4.02299 0
      vertex 0 4.02299 1.72414
      vertex 8.04598 4.02299 1.72414
    endloop
  endfacet
  facet normal 0 1 0
    outer loop
      vertex 0 4.02299 1.72414
      vertex 8.04598 4.02299 0
      vertex 0 4.02299 0
    endloop
  endfacet
  facet normal -1 0 0
    outer loop
      vertex 0 0 0
      vertex 0 4.02299 1.72414
      vertex 0 4.02299 0
    endloop
  endfacet
  facet normal -1 -0 0
    outer loop
      vertex 0 4.02299 1.72414
      vertex 0 0 0
      vertex 0 0 1.72414
    endloop
  endfacet
endsolid OpenSCAD_Model
