solid OpenSCAD_Model
  facet normal 1 -0 0
    outer loop
      vertex 28.6897 0 1.72414
      vertex 28.6897 3.44828 0
      vertex 28.6897 3.44828 1.72414
    endloop
  endfacet
  facet normal 1 0 0
    outer loop
      vertex 28.6897 3.44828 0
      vertex 28.6897 0 1.72414
      vertex 28.6897 0 0
    endloop
  endfacet
  facet normal -0 0 1
    outer loop
      vertex 0 3.44828 1.72414
      vertex 28.6897 0 1.72414
      vertex 28.6897 3.44828 1.72414
    endloop
  endfacet
  facet normal 0 0 1
    outer loop
      vertex 28.6897 0 1.72414
      vertex 0 3.44828 1.72414
      vertex 0 0 1.72414
    endloop
  endfacet
  facet normal 0 0 -1
    outer loop
      vertex 0 0 0
      vertex 28.6897 3.44828 0
      vertex 28.6897 0 0
    endloop
  endfacet
  facet normal -0 0 -1
    outer loop
      vertex 28.6897 3.44828 0
      vertex 0 0 0
      vertex 0 3.44828 0
    endloop
  endfacet
  facet normal -1 0 0
    outer loop
      vertex 0 0 0
      vertex 0 3.44828 1.72414
      vertex 0 3.44828 0
    endloop
  endfacet
  facet normal -1 -0 0
    outer loop
      vertex 0 3.44828 1.72414
      vertex 0 0 0
      vertex 0 0 1.72414
    endloop
  endfacet
  facet normal 0 1 -0
    outer loop
      vertex 28.6897 3.44828 0
      vertex 0 3.44828 1.72414
      vertex 28.6897 3.44828 1.72414
    endloop
  endfacet
  facet normal 0 1 0
    outer loop
      vertex 0 3.44828 1.72414
      vertex 28.6897 3.44828 0
      vertex 0 3.44828 0
    endloop
  endfacet
  facet normal 0 -1 0
    outer loop
      vertex 0 0 0
      vertex 28.6897 0 1.72414
      vertex 0 0 1.72414
    endloop
  endfacet
  facet normal 0 -1 -0
    outer loop
      vertex 28.6897 0 1.72414
      vertex 0 0 0
      vertex 28.6897 0 0
    endloop
  endfacet
  facet normal 1 -0 0
    outer loop
      vertex 59.3793 0 3.44828
      vertex 59.3793 3.44828 0
      vertex 59.3793 3.44828 3.44828
    endloop
  endfacet
  facet normal 1 0 0
    outer loop
      vertex 59.3793 3.44828 0
      vertex 59.3793 0 3.44828
      vertex 59.3793 0 0
    endloop
  endfacet
  facet normal -0 0 1
    outer loop
      vertex 30.6897 3.44828 3.44828
      vertex 59.3793 0 3.44828
      vertex 59.3793 3.44828 3.44828
    endloop
  endfacet
  facet normal 0 0 1
    outer loop
      vertex 59.3793 0 3.44828
      vertex 30.6897 3.44828 3.44828
      vertex 30.6897 0 3.44828
    endloop
  endfacet
  facet normal 0 0 -1
    outer loop
      vertex 30.6897 0 0
      vertex 59.3793 3.44828 0
      vertex 59.3793 0 0
    endloop
  endfacet
  facet normal -0 0 -1
    outer loop
      vertex 59.3793 3.44828 0
      vertex 30.6897 0 0
      vertex 30.6897 3.44828 0
    endloop
  endfacet
  facet normal -1 0 0
    outer loop
      vertex 30.6897 0 0
      vertex 30.6897 3.44828 3.44828
      vertex 30.6897 3.44828 0
    endloop
  endfacet
  facet normal -1 -0 0
    outer loop
      vertex 30.6897 3.44828 3.44828
      vertex 30.6897 0 0
      vertex 30.6897 0 3.44828
    endloop
  endfacet
  facet normal 0 1 -0
    outer loop
      vertex 59.3793 3.44828 0
      vertex 30.6897 3.44828 3.44828
      vertex 59.3793 3.44828 3.44828
    endloop
  endfacet
  facet normal 0 1 0
    outer loop
      vertex 30.6897 3.44828 3.44828
      vertex 59.3793 3.44828 0
      vertex 30.6897 3.44828 0
    endloop
  endfacet
  facet normal 0 -1 0
    outer loop
      vertex 30.6897 0 0
      vertex 59.3793 0 3.44828
      vertex 30.6897 0 3.44828
    endloop
  endfacet
  facet normal 0 -1 -0
    outer loop
      vertex 59.3793 0 3.44828
      vertex 30.6897 0 0
      vertex 59.3793 0 0
    endloop
  endfacet
  facet normal 1 -0 0
    outer loop
      vertex 90.069 0 5.17241
      vertex 90.069 3.44828 0
      vertex 90.069 3.44828 5.17241
    endloop
  endfacet
  facet normal 1 0 0
    outer loop
      vertex 90.069 3.44828 0
      vertex 90.069 0 5.17241
      vertex 90.069 0 0
    endloop
  endfacet
  facet normal -0 0 1
    outer loop
      vertex 61.3793 3.44828 5.17241
      vertex 90.069 0 5.17241
      vertex 90.069 3.44828 5.17241
    endloop
  endfacet
  facet normal 0 0 1
    outer loop
      vertex 90.069 0 5.17241
      vertex 61.3793 3.44828 5.17241
      vertex 61.3793 0 5.17241
    endloop
  endfacet
  facet normal 0 0 -1
    outer loop
      vertex 61.3793 0 0
      vertex 90.069 3.44828 0
      vertex 90.069 0 0
    endloop
  endfacet
  facet normal -0 0 -1
    outer loop
      vertex 90.069 3.44828 0
      vertex 61.3793 0 0
      vertex 61.3793 3.44828 0
    endloop
  endfacet
  facet normal -1 0 0
    outer loop
      vertex 61.3793 0 0
      vertex 61.3793 3.44828 5.17241
      vertex 61.3793 3.44828 0
    endloop
  endfacet
  facet normal -1 -0 0
    outer loop
      vertex 61.3793 3.44828 5.17241
      vertex 61.3793 0 0
      vertex 61.3793 0 5.17241
    endloop
  endfacet
  facet normal 0 1 -0
    outer loop
      vertex 90.069 3.44828 0
      vertex 61.3793 3.44828 5.17241
      vertex 90.069 3.44828 5.17241
    endloop
  endfacet
  facet normal 0 1 0
    outer loop
      vertex 61.3793 3.44828 5.17241
      vertex 90.069 3.44828 0
      vertex 61.3793 3.44828 0
    endloop
  endfacet
  facet normal 0 -1 0
    outer loop
      vertex 61.3793 0 0
      vertex 90.069 0 5.17241
      vertex 61.3793 0 5.17241
    endloop
  endfacet
  facet normal 0 -1 -0
    outer loop
      vertex 90.069 0 5.17241
      vertex 61.3793 0 0
      vertex 90.069 0 0
    endloop
  endfacet
endsolid OpenSCAD_Model
